<svg width="356" height="168" viewBox="0 0 356 168" fill="none" xmlns="http://www.w3.org/2000/svg">
<path d="M0 152L16.115 119.66H26.95L43.01 152H34.54L31.295 145.015H11.605L8.03 152H0ZM13.585 139.625H29.26L21.725 124.61H21.175L13.585 139.625ZM47.9725 152V124.06L47.4225 119.605H71.7875C74.1341 119.605 75.9675 119.917 77.2875 120.54C78.6441 121.163 79.6341 121.988 80.2575 123.015C80.9175 124.005 81.3391 125.068 81.5225 126.205C81.7058 127.342 81.7975 128.423 81.7975 129.45V132.695C81.7975 133.538 81.6691 134.492 81.4125 135.555C81.1558 136.582 80.6791 137.59 79.9825 138.58C79.2858 139.533 78.2775 140.34 76.9575 141C75.6375 141.623 73.9141 141.935 71.7875 141.935H66.1775C63.8675 141.935 61.7041 141.88 59.6875 141.77C57.7075 141.66 56.2225 141.568 55.2325 141.495V152H47.9725ZM55.2325 136.655H70.1925C71.8425 136.655 72.9791 136.252 73.6025 135.445C74.2258 134.638 74.5375 133.667 74.5375 132.53V129.065C74.5375 127.892 74.2258 126.902 73.6025 126.095C72.9791 125.288 71.8608 124.885 70.2475 124.885H55.2325V136.655ZM90.0281 152V124.06L89.4781 119.66H97.3981L116.098 139.24L118.243 142.21H118.848V119.66H126.108V152H119.123L99.9831 132.09L97.8381 129.505H97.2881V152H90.0281ZM130.518 152L146.633 119.66H157.468L173.528 152H165.058L161.813 145.015H142.123L138.548 152H130.518ZM144.103 139.625H159.778L152.243 124.61H151.693L144.103 139.625ZM202.18 152V138.58L186.175 119.66H194.975L203.115 129.945L205.645 133.355H206.195L208.725 129.945L216.865 119.66H225.665L223.52 122.96L209.44 138.8V152H202.18ZM219.624 152L235.739 119.66H246.574L262.634 152H254.164L250.919 145.015H231.229L227.654 152H219.624ZM233.209 139.625H248.884L241.349 124.61H240.799L233.209 139.625ZM271.495 152L271.44 124.885H257.14V119.605H293.11V124.885H278.755V152H271.495ZM333.774 152.55C332.307 152.55 330.859 152.33 329.429 151.89C328.035 151.413 326.44 150.277 324.644 148.48L320.684 144.52C319.07 142.87 317.292 141.66 315.349 140.89C313.442 140.12 311.04 139.735 308.144 139.735H306.439V152H299.179V124.06L298.629 119.605H322.994C325.34 119.605 327.174 119.917 328.494 120.54C329.85 121.163 330.84 121.988 331.464 123.015C332.124 124.005 332.545 125.068 332.729 126.205C332.912 127.342 333.004 128.423 333.004 129.45V130.495C333.004 131.302 332.894 132.2 332.674 133.19C332.454 134.18 332.032 135.152 331.409 136.105C330.785 137.058 329.887 137.865 328.714 138.525C327.577 139.185 326.074 139.57 324.204 139.68C324.68 139.937 325.285 140.34 326.019 140.89C326.752 141.403 327.504 141.972 328.274 142.595C329.08 143.218 329.814 143.787 330.474 144.3C331.134 144.813 331.647 145.18 332.014 145.4C333.334 146.17 334.507 146.702 335.534 146.995C336.56 147.288 337.404 147.453 338.064 147.49C338.724 147.527 339.109 147.545 339.219 147.545L338.119 152C337.789 152.11 337.239 152.22 336.469 152.33C335.699 152.477 334.8 152.55 333.774 152.55ZM314.689 134.73C316.082 134.73 317.329 134.712 318.429 134.675C319.529 134.602 320.519 134.528 321.399 134.455C323.012 134.272 324.13 133.832 324.754 133.135C325.414 132.402 325.744 131.467 325.744 130.33V129.065C325.744 127.892 325.432 126.902 324.809 126.095C324.185 125.288 323.067 124.885 321.454 124.885H306.439V134.455C308.052 134.565 309.537 134.638 310.894 134.675C312.25 134.712 313.515 134.73 314.689 134.73ZM344.175 152V119.66H351.435V152H344.175Z" fill="white"/>
<path d="M285.867 84.4705C281.104 84.4705 277.229 80.5955 277.229 75.8325C277.229 71.0695 281.104 67.1945 285.867 67.1945C290.63 67.1945 294.505 71.0695 294.505 75.8325C294.505 80.5955 290.63 84.4705 285.867 84.4705ZM285.867 68.3155C281.721 68.3155 278.35 71.6875 278.35 75.8335C278.35 79.9795 281.721 83.3515 285.867 83.3515C290.012 83.3515 293.385 79.9795 293.385 75.8335C293.385 71.6875 290.013 68.3155 285.867 68.3155Z" fill="white"/>
<path d="M285.795 77.7635C284.791 77.7635 283.975 76.9475 283.975 75.9435C283.975 74.9395 284.791 74.1235 285.795 74.1235C286.799 74.1235 287.615 74.9395 287.615 75.9435C287.615 76.9475 286.799 77.7635 285.795 77.7635ZM285.795 74.6815C285.099 74.6815 284.533 75.2475 284.533 75.9435C284.533 76.6385 285.099 77.2055 285.795 77.2055C286.49 77.2055 287.057 76.6395 287.057 75.9435C287.057 75.2475 286.491 74.6815 285.795 74.6815Z" fill="white"/>
<path d="M281.963 82.0214L282.504 77.1994L278.838 74.0204L283.592 73.0444L285.483 68.5754L287.88 72.7944L292.714 73.2124L289.442 76.7944L290.539 81.5214L286.12 79.5174L281.963 82.0214ZM281.026 74.5924L283.557 76.7874L283.184 80.1184L286.055 78.3884L289.106 79.7734L288.348 76.5094L290.608 74.0344L287.27 73.7455L285.614 70.8315L284.307 73.9184L281.026 74.5924Z" fill="white"/>
<path d="M58.2426 75.4126C58.2426 60.2316 70.5536 47.9256 85.7386 47.9256C95.5486 47.9256 104.151 53.0636 109.018 60.7906C104.355 51.1956 94.5145 44.5806 83.1245 44.5806C67.2355 44.5806 54.3546 57.4566 54.3546 73.3416C54.3546 87.0216 63.9105 98.4615 76.7105 101.376C65.9625 97.6415 58.2426 87.4316 58.2426 75.4126Z" fill="white"/>
<path d="M26.2775 35.9495C26.2775 35.9495 15.2225 39.7625 13.6975 53.8665C12.1735 67.9715 13.6975 25.2765 13.6975 25.2765C13.6975 25.2765 14.8415 28.3265 26.2775 35.9495Z" fill="white"/>
<path d="M18.7556 59.4036C18.7556 59.4036 12.1265 91.7916 52.4496 90.0916C52.4496 90.0916 9.37355 102.238 12.1266 59.4036H18.7556Z" fill="white"/>
<path d="M326.284 42.8115C326.284 42.8115 308.749 32.8995 235.938 34.4255C235.938 34.4255 213.067 12.6965 169.992 7.35949C169.992 7.35949 128.756 3.9795 73.9276 22.2275C73.9276 22.2275 57.1096 28.3595 30.8516 34.0445C30.8516 34.0445 17.8906 25.6585 16.3666 20.3215C16.3666 20.3215 29.9946 25.2765 61.3476 17.6525C61.3476 17.6525 134.203 -8.9615 188.288 3.1675C188.288 3.1675 220.309 9.64748 240.512 25.2765C240.512 25.2765 298.074 24.1325 326.284 42.8115Z" fill="white"/>
<path d="M338.1 59.3336C338.1 59.3336 335.051 52.0906 315.991 51.3286C315.991 51.3286 315.434 49.1106 309.89 43.7046C309.89 43.7046 328.951 39.5116 338.1 59.3336Z" fill="white"/>
<path d="M160.079 36.3306H225.645C225.645 36.3306 197.437 12.3146 171.325 13.4586C171.325 13.4586 200.105 19.1766 207.73 30.9936L160.079 36.3306Z" fill="white"/>
<path d="M151.693 36.3305V16.5085C151.693 16.5085 114.336 14.9845 90.3196 25.2755C90.3196 25.2755 108.618 11.1715 154.743 11.5525L151.693 36.3305Z" fill="white"/>
<path d="M338.099 63.0334C338.099 63.0334 316.796 83.3614 343.861 91.6814C343.861 91.6814 326.327 91.7474 321.371 91.6814C321.371 91.6814 320.564 64.9394 338.099 63.0334Z" fill="white"/>
<path d="M263.6 52.2056C211.756 29.2346 170.921 72.6015 104.171 42.8105C104.171 42.8105 143.399 101.375 241.477 70.0456C241.477 70.0456 198.504 99.8536 124.945 72.9776C124.945 72.9776 203.031 115.565 260.585 91.2256C264.581 96.2456 270.221 99.9016 276.693 101.375C269.727 98.9556 264.038 93.8146 260.893 87.2276C252.237 69.0986 265.438 47.9256 285.719 47.9256C295.528 47.9256 304.131 53.0636 308.997 60.7906C300.53 43.3686 277.714 39.1836 263.6 52.2056Z" fill="white"/>
<path opacity="0.5" d="M285.868 51.8105C272.623 51.8105 261.847 62.5865 261.847 75.8326C261.847 89.0786 272.623 99.8546 285.868 99.8546C299.115 99.8546 309.89 89.0786 309.89 75.8326C309.89 62.5865 299.116 51.8105 285.868 51.8105ZM285.868 92.2736C276.802 92.2736 269.428 84.8986 269.428 75.8336C269.428 66.7676 276.802 59.3925 285.868 59.3925C294.934 59.3925 302.31 66.7676 302.31 75.8336C302.311 84.8986 294.934 92.2736 285.868 92.2736ZM297.741 59.9296C294.759 57.5296 291.501 56.1136 288.948 55.6056C298.001 56.1776 305.746 63.4455 306.858 72.9185L305.009 72.9796C304.429 66.5706 300.742 62.3456 297.741 59.9296Z" fill="white"/>
<path opacity="0.5" d="M85.8886 51.8105C72.6436 51.8105 61.8666 62.5865 61.8666 75.8326C61.8666 89.0786 72.6426 99.8546 85.8886 99.8546C99.1366 99.8546 109.911 89.0786 109.911 75.8326C109.911 62.5865 99.1366 51.8105 85.8886 51.8105ZM85.8886 92.2736C76.8236 92.2736 69.4486 84.8986 69.4486 75.8336C69.4486 66.7676 76.8236 59.3925 85.8886 59.3925C94.9546 59.3925 102.331 66.7676 102.331 75.8336C102.331 84.8986 94.9546 92.2736 85.8886 92.2736ZM97.7606 59.9296C94.7786 57.5296 91.5206 56.1136 88.9676 55.6056C98.0206 56.1776 105.767 63.4455 106.879 72.9185L105.029 72.9796C104.451 66.5706 100.763 62.3456 97.7606 59.9296Z" fill="white"/>
<path d="M85.8886 51.8105C72.6436 51.8105 61.8666 62.5865 61.8666 75.8326C61.8666 89.0786 72.6426 99.8546 85.8886 99.8546C99.1366 99.8546 109.911 89.0786 109.911 75.8326C109.911 62.5865 99.1366 51.8105 85.8886 51.8105ZM85.8886 92.2736C76.8236 92.2736 69.4486 84.8986 69.4486 75.8336C69.4486 66.7676 76.8236 59.3925 85.8886 59.3925C94.9546 59.3925 102.331 66.7676 102.331 75.8336C102.331 84.8986 94.9546 92.2736 85.8886 92.2736ZM97.7606 59.9296C94.7786 57.5296 91.5206 56.1136 88.9676 55.6056C98.0206 56.1776 105.767 63.4455 106.879 72.9185L105.029 72.9796C104.451 66.5706 100.763 62.3456 97.7606 59.9296Z" fill="white"/>
<path d="M285.889 51.8105C272.644 51.8105 261.867 62.5865 261.867 75.8326C261.867 89.0786 272.643 99.8546 285.889 99.8546C299.137 99.8546 309.911 89.0786 309.911 75.8326C309.911 62.5865 299.137 51.8105 285.889 51.8105ZM285.889 92.2736C276.824 92.2736 269.449 84.8986 269.449 75.8336C269.449 66.7676 276.824 59.3925 285.889 59.3925C294.955 59.3925 302.331 66.7676 302.331 75.8336C302.331 84.8986 294.955 92.2736 285.889 92.2736ZM297.761 59.9296C294.779 57.5296 291.521 56.1136 288.968 55.6056C298.021 56.1776 305.767 63.4455 306.879 72.9185L305.029 72.9796C304.451 66.5706 300.763 62.3456 297.761 59.9296Z" fill="white"/>
<path d="M85.9815 84.3356C81.2195 84.3356 77.3445 80.4605 77.3445 75.6985C77.3445 70.9355 81.2195 67.0605 85.9815 67.0605C90.7445 67.0605 94.6195 70.9355 94.6195 75.6985C94.6195 80.4605 90.7445 84.3356 85.9815 84.3356ZM85.9815 68.1815C81.8365 68.1815 78.4645 71.5536 78.4645 75.6996C78.4645 79.8446 81.8365 83.2176 85.9815 83.2176C90.1265 83.2176 93.4995 79.8446 93.4995 75.6996C93.4985 71.5536 90.1265 68.1815 85.9815 68.1815Z" fill="white"/>
<path d="M85.9085 77.6285C84.9045 77.6285 84.0886 76.8125 84.0886 75.8085C84.0886 74.8055 84.9045 73.9885 85.9085 73.9885C86.9125 73.9885 87.7285 74.8055 87.7285 75.8085C87.7295 76.8125 86.9125 77.6285 85.9085 77.6285ZM85.9085 74.5465C85.2125 74.5465 84.6465 75.1125 84.6465 75.8085C84.6465 76.5045 85.2115 77.0705 85.9085 77.0705C86.6035 77.0705 87.1706 76.5055 87.1706 75.8085C87.1706 75.1135 86.6045 74.5465 85.9085 74.5465Z" fill="white"/>
<path d="M82.0765 81.8865L82.6165 77.0645L78.9515 73.8865L83.7046 72.9095L85.5956 68.4415L87.9915 72.6605L92.8256 73.0775L89.5536 76.6605L90.6516 81.3865L86.2325 79.3825L82.0765 81.8865ZM81.1385 74.4585L83.6696 76.6535L83.2965 79.9835L86.1675 78.2535L89.2195 79.6375L88.4615 76.3735L90.7216 73.8985L87.3825 73.6105L85.7266 70.6965L84.4206 73.7835L81.1385 74.4585Z" fill="white"/>
</svg>
