<svg xmlns="http://www.w3.org/2000/svg" width="22.074" height="22.074" viewBox="0 0 22.074 22.074">
  <g id="Group_38279" data-name="Group 38279" transform="translate(-0.963 -0.963)">
    <g id="vuesax_linear_note" data-name="vuesax/linear/note">
      <g id="note" transform="translate(0.963 0.963)">
        <path id="Vector" d="M0,0V3" transform="translate(7.358 2)" fill="none" stroke="#0e56ab" stroke-linecap="round" stroke-linejoin="round" stroke-width="2"/>
        <path id="Vector-2" data-name="Vector" d="M0,0V3" transform="translate(14.716 2)" fill="none" stroke="#0e56ab" stroke-linecap="round" stroke-linejoin="round" stroke-width="2"/>
        <path id="Vector-3" data-name="Vector" d="M0,0H8" transform="translate(6.157 11.957)" fill="none" stroke="#0e56ab" stroke-linecap="round" stroke-linejoin="round" stroke-width="2"/>
        <path id="Vector-4" data-name="Vector" d="M0,0H5" transform="translate(6.291 15.636)" fill="none" stroke="#0e56ab" stroke-linecap="round" stroke-linejoin="round" stroke-width="2"/>
        <path id="Vector-5" data-name="Vector" d="M11.609,0c2.974.161,4.465,1.3,4.465,5.51v5.537c0,3.691-.893,5.537-5.358,5.537H5.358C.893,16.584,0,14.739,0,11.047V5.51C0,1.3,1.491.17,4.465,0Z" transform="translate(3 3.5)" fill="none" stroke="#0e56ab" stroke-linecap="round" stroke-linejoin="round" stroke-width="2"/>
        <path id="Vector-6" data-name="Vector" d="M0,0H22.074V22.074H0Z" fill="none" opacity="0"/>
      </g>
    </g>
  </g>
</svg>
