<?xml version="1.0" encoding="UTF-8"?>
<svg id="Layer_2" data-name="Layer 2" xmlns="http://www.w3.org/2000/svg" viewBox="0 0 439.6 372.05">
  <defs>
    <style>
      .cls-1 {
        font-size: 52.74px;
      }

      .cls-1, .cls-2, .cls-3, .cls-4 {
        fill: #6779b7;
      }

      .cls-1, .cls-2, .cls-3, .cls-5 {
        font-family: Quicksand-Bold, Quicksand;
        font-weight: 700;
      }

      .cls-6 {
        fill: #fff;
      }

      .cls-2 {
        font-size: 59.8px;
      }

      .cls-7 {
        fill: #c85f64;
      }

      .cls-8 {
        letter-spacing: 0em;
      }

      .cls-9 {
        fill: #d8877b;
      }

      .cls-10 {
        fill: #c9b5a9;
      }

      .cls-11 {
        letter-spacing: -.05em;
      }

      .cls-3 {
        font-size: 49.88px;
      }

      .cls-12 {
        letter-spacing: 0em;
      }

      .cls-13 {
        fill: #4f6e59;
      }

      .cls-5 {
        font-size: 14.7px;
      }

      .cls-5, .cls-14 {
        fill: #2e344b;
      }

      .cls-15 {
        fill: #b9cfe6;
      }

      .cls-16 {
        fill: #f4e8d8;
      }

      .cls-17 {
        fill: #b44e50;
      }
    </style>
  </defs>
  <g id="BACKGROUND">
    <path class="cls-10" d="m7.45,369.36s2.9-70.2,27.06-77.63c24.16-7.43,28.51,44.18,48.81,46.66,20.3,2.48,89.4-72.67,111.62-74.33s24.16,40.05,42.52,39.64c18.36-.41,32.86-34.69,58.47-34.69s24.64,35.51,44.94,38.4c20.3,2.89,30.93-14.87,48.81-14.87s36.72,38.4,36.72,74.33l-418.95,2.48Z"/>
    <circle class="cls-16" cx="126.22" cy="166" r="75.57" transform="translate(-80.41 137.87) rotate(-45)"/>
  </g>
  <g id="OBJECTS">
    <g>
      <path class="cls-6" d="m409.12,24.74l1.48.48c.68.22.68,1.18,0,1.4l-1.48.48c-1.85.6-3.3,2.05-3.9,3.9l-.48,1.48c-.22.68-1.18.68-1.4,0l-.48-1.48c-.6-1.85-2.05-3.3-3.9-3.9l-1.48-.48c-.68-.22-.68-1.18,0-1.4l1.48-.48c1.85-.6,3.3-2.05,3.9-3.9l.48-1.48c.22-.68,1.18-.68,1.4,0l.48,1.48c.6,1.85,2.05,3.3,3.9,3.9Z"/>
      <path class="cls-6" d="m227.83,217.15l1.48.48c.68.22.68,1.18,0,1.4l-1.48.48c-1.85.6-3.3,2.05-3.9,3.9l-.48,1.48c-.22.68-1.18.68-1.4,0l-.48-1.48c-.6-1.85-2.05-3.3-3.9-3.9l-1.48-.48c-.68-.22-.68-1.18,0-1.4l1.48-.48c1.85-.6,3.3-2.05,3.9-3.9l.48-1.48c.22-.68,1.18-.68,1.4,0l.48,1.48c.6,1.85,2.05,3.3,3.9,3.9Z"/>
      <path class="cls-6" d="m28.86,203.73l1.01.33c.46.15.46.8,0,.95l-1.01.33c-1.26.41-2.25,1.4-2.66,2.66l-.33,1.01c-.15.46-.8.46-.95,0l-.33-1.01c-.41-1.26-1.4-2.25-2.66-2.66l-1.01-.33c-.46-.15-.46-.8,0-.95l1.01-.33c1.26-.41,2.25-1.4,2.66-2.66l.33-1.01c.15-.46.8-.46.95,0l.33,1.01c.41,1.26,1.4,2.25,2.66,2.66Z"/>
      <path class="cls-6" d="m235.75,231.99l1.01.33c.46.15.46.8,0,.95l-1.01.33c-1.26.41-2.25,1.4-2.66,2.66l-.33,1.01c-.15.46-.8.46-.95,0l-.33-1.01c-.41-1.26-1.4-2.25-2.66-2.66l-1.01-.33c-.46-.15-.46-.8,0-.95l1.01-.33c1.26-.41,2.25-1.4,2.66-2.66l.33-1.01c.15-.46.8-.46.95,0l.33,1.01c.41,1.26,1.4,2.25,2.66,2.66Z"/>
      <path class="cls-6" d="m233.28,75.18l1.01.33c.46.15.46.8,0,.95l-1.01.33c-1.26.41-2.25,1.4-2.66,2.66l-.33,1.01c-.15.46-.8.46-.95,0l-.33-1.01c-.41-1.26-1.4-2.25-2.66-2.66l-1.01-.33c-.46-.15-.46-.8,0-.95l1.01-.33c1.26-.41,2.25-1.4,2.66-2.66l.33-1.01c.15-.46.8-.46.95,0l.33,1.01c.41,1.26,1.4,2.25,2.66,2.66Z"/>
      <path class="cls-6" d="m86.03,25.12l1.01.33c.46.15.46.8,0,.95l-1.01.33c-1.26.41-2.25,1.4-2.66,2.66l-.33,1.01c-.15.46-.8.46-.95,0l-.33-1.01c-.41-1.26-1.4-2.25-2.66-2.66l-1.01-.33c-.46-.15-.46-.8,0-.95l1.01-.33c1.26-.41,2.25-1.4,2.66-2.66l.33-1.01c.15-.46.8-.46.95,0l.33,1.01c.41,1.26,1.4,2.25,2.66,2.66Z"/>
      <path class="cls-6" d="m37.84,352.35l1.01.33c.46.15.46.8,0,.95l-1.01.33c-1.26.41-2.25,1.4-2.66,2.66l-.33,1.01c-.15.46-.8.46-.95,0l-.33-1.01c-.41-1.26-1.4-2.25-2.66-2.66l-1.01-.33c-.46-.15-.46-.8,0-.95l1.01-.33c1.26-.41,2.25-1.4,2.66-2.66l.33-1.01c.15-.46.8-.46.95,0l.33,1.01c.41,1.26,1.4,2.25,2.66,2.66Z"/>
      <path class="cls-6" d="m438.24,268.72l1.01.33c.46.15.46.8,0,.95l-1.01.33c-1.26.41-2.25,1.4-2.66,2.66l-.33,1.01c-.15.46-.8.46-.95,0l-.33-1.01c-.41-1.26-1.4-2.25-2.66-2.66l-1.01-.33c-.46-.15-.46-.8,0-.95l1.01-.33c1.26-.41,2.25-1.4,2.66-2.66l.33-1.01c.15-.46.8-.46.95,0l.33,1.01c.41,1.26,1.4,2.25,2.66,2.66Z"/>
    </g>
    <g>
      <path class="cls-6" d="m351.43,60.69h-42.98c-34.94,0-63.27,28.33-63.27,63.27v18.19c0,34.94,28.33,63.27,63.27,63.27h5.76l13.28,23c1.09,1.88,3.81,1.88,4.9,0l13.28-23h5.76c34.94,0,63.27-28.33,63.27-63.27v-18.19c0-34.94-28.33-63.27-63.27-63.27Z"/>
      <g>
        <polygon class="cls-15" points="348.3 77.86 292.43 77.86 292.43 180.94 370.07 180.94 370.07 99.63 348.3 77.86"/>
        <polygon class="cls-4" points="348.3 99.63 370.07 99.63 348.3 77.86 348.3 99.63"/>
        <path class="cls-14" d="m319.76,118.07c0-.13-.03-.26-.05-.38,0-.22,0-.44,0-.66,0-.67-.29-1.36-.76-1.84-.45-.45-1.19-.79-1.84-.76-.67.03-1.37.25-1.84.76-.46.51-.77,1.13-.76,1.84,0,.17,0,.34,0,.52-.04.17-.05.35-.05.53-.04,1.12-.06,2.22-.03,3.34,0,.23.05.46.11.69,0,.06,0,.12,0,.18.06.69.25,1.31.75,1.81.44.44,1.17.78,1.81.75.66-.03,1.35-.25,1.81-.75.44-.48.8-1.14.75-1.81,0-.04,0-.09,0-.14.07-.23.12-.48.11-.73.03-1.12.01-2.22-.03-3.34Z"/>
        <path class="cls-14" d="m346.8,118.07c0-.13-.03-.26-.05-.38,0-.22,0-.44,0-.66,0-.67-.29-1.36-.76-1.84-.45-.45-1.19-.79-1.84-.76-.67.03-1.37.25-1.84.76-.46.51-.77,1.13-.76,1.84,0,.17,0,.34,0,.52-.04.17-.05.35-.05.53-.04,1.12-.06,2.22-.03,3.34,0,.23.05.46.11.69,0,.06,0,.12,0,.18.06.69.25,1.31.75,1.81.44.44,1.17.78,1.81.75.66-.03,1.35-.25,1.81-.75.44-.48.8-1.14.75-1.81,0-.04,0-.09,0-.14.07-.23.12-.48.11-.73.03-1.12.01-2.22-.03-3.34Z"/>
        <path class="cls-14" d="m342.05,138.73c-.17-1.23-1.5-2.08-2.44-2.74-.89-.63-1.86-1.12-2.87-1.53-2.11-.86-4.45-1.25-6.72-.99-2.18.25-4.29.98-6.14,2.16-1.51.97-3.94,2.68-3.95,4.69,0,.42.42.76.83.64.79-.25,1.44-.89,2.04-1.44.68-.62,1.43-1.15,2.23-1.6,1.56-.87,3.34-1.41,5.13-1.48,1.78-.06,3.58.24,5.22.95.82.36,1.63.83,2.35,1.36.81.6,1.47,1.55,2.51,1.76,1.19.23,1.95-.67,1.8-1.8Z"/>
        <path class="cls-7" d="m336.49,99.98c-.63-.63-1.26-1.26-1.89-1.89,0,0,0,0,0-.01-.58-.58-1.16-1.16-1.74-1.74.58-.58,1.16-1.16,1.74-1.74,0,0,0,0,0-.01.63-.63,1.26-1.26,1.89-1.89.54-.54.54-1.47,0-2.01-.55-.55-1.47-.55-2.01,0-.63.63-1.26,1.26-1.89,1.89,0,0,0,0-.01,0-.58.58-1.16,1.16-1.74,1.74-.04-.04-.09-.09-.13-.13,0,0,0,0,0,0-.31-.36-.68-.68-1.02-1.02,0,0,0,0,0,0-.59-.59-1.18-1.18-1.77-1.77,0,0-.01,0-.01-.01l-.71-.71c-.54-.54-1.47-.54-2.01,0-.55.55-.54,1.47,0,2.01.24.24.47.47.71.71,0,0,0,.01.01.01.59.59,1.18,1.18,1.77,1.77,0,0,0,0,0,0,.34.34.66.7,1.02,1.02,0,0,0,0,0,0,.04.04.09.09.13.13-.04.04-.09.09-.13.13,0,0,0,0,0,0-.36.31-.68.68-1.02,1.02,0,0,0,0,0,0-.59.59-1.18,1.18-1.77,1.77,0,0,0,.01-.01.01-.24.24-.47.47-.71.71-.54.54-.54,1.47,0,2.01.55.55,1.47.55,2.01,0l.71-.71s.01,0,.01-.01c.59-.59,1.18-1.18,1.77-1.77,0,0,0,0,0,0,.34-.34.7-.66,1.02-1.02,0,0,0,0,0,0l.13-.13,1.74,1.74s0,0,.01,0c.63.63,1.26,1.26,1.89,1.89.54.54,1.47.54,2.01,0,.55-.55.55-1.47,0-2.01Z"/>
      </g>
    </g>
    <g>
      <path class="cls-14" d="m218.6,291.74c-1.59,1.97-8.88,5.62-8.88,5.62l.23-11.39,8.65,5.77Z"/>
      <path class="cls-9" d="m214.65,289.01l-37.65,2.43s-4.94,39.77,1.32,51.8c6.27,12.03,26.53,15.9,38.14,14.99,11.61-.91,66.42-.91,72.67-.13,6.25.78,12.82,5.23,12.82,5.23h43.4s-7.03-12.35-18.87-22.56c-11.84-10.2-23.67-8.5-30.16-8.96-6.49-.46-71.04-12.39-76.05-14.19-5.01-1.81-5.62-28.62-5.62-28.62Z"/>
      <path class="cls-17" d="m214.65,289.01l-30.87,1.99-1.01,2.26s18.08,3.81,32.23,2.86c-.28-4.08-.35-7.11-.35-7.11Z"/>
      <path class="cls-14" d="m24.13,289.16c5.1,2.38,15.94,7.97,22.77,7.51,6.83-.46,1.37-15.71,1.37-15.71l-24.14,8.2Z"/>
      <path class="cls-13" d="m100.72,189.6s-36.28,8.03-52.22,20.1c-15.94,12.07-24.36,70.36-24.36,79.47,0,0,7.18.32,9.79.32l27.77,51.03-2.5,24.66h130.05l-6.48-71.91,35.83-1.52s-13.36-69.83-23.38-78.33c-10.02-8.5-46.59-17.15-46.59-17.15l-32.96-6.54-14.96-.13Z"/>
      <path class="cls-9" d="m76.85,289.48h-42.92s-.92,35.05,5.34,47.08c6.27,12.03,26.53,15.9,38.14,14.99s66.42-.91,72.67-.13c6.25.78,12.82,5.23,12.82,5.23h43.4s-7.03-12.35-18.87-22.56c-11.84-10.2-23.67-8.5-30.16-8.96-6.49-.46-71.04-12.39-76.05-14.19-5.01-1.81-4.37-21.46-4.37-21.46Z"/>
      <path class="cls-14" d="m104.52,176.66s-34.12-2.25-36.1-49.67c-1.59-37.96,18.95-39.87,18.95-39.87,0,0,3.65-17.7,13.66-21.12,10.01-3.42,15.66,3.07,15.66,3.07,0,0,5.66-9.85,17.31-7.73,11.65,2.12,16.28,11.94,16.28,11.94,0,0,16.67-5.25,21.59,11.37,0,0,12.72,5.64,8.73,24.45,0,0,9.17,4.36-.19,20.06,0,0,3.17,31.65-22.09,39.57-25.26,7.92-53.81,7.92-53.81,7.92Z"/>
      <path class="cls-9" d="m109.08,167.03s-3.67,16.87-8.37,22.57c0,0,22.37,23.29,47.91,6.67l-.17-19.49-39.38-9.75Z"/>
      <path class="cls-14" d="m4.55,372.05h425.22c2.52,0,4.55-2.04,4.55-4.55h0c0-2.52-2.04-4.55-4.55-4.55H4.55c-2.52,0-4.55,2.04-4.55,4.55h0c0,2.52,2.04,4.55,4.55,4.55Z"/>
      <path class="cls-17" d="m103.02,185.83c22,14.17,44.99,1.78,44.99,1.78l-10.96-13.65-27.96-6.92s-2.52,11.59-6.06,18.8Z"/>
      <path class="cls-9" d="m88.98,136.7s-7.73-4.96-10.76,6.84c-3.04,11.8,6.75,15.15,13.41,13.33,0,0,5.27,30.3,41.69,32.82,36.41,2.51,40.05-46.42,37.36-66.84,0,0-15.08-.98-19.69-7.46,0,0-16.66,3.65-23.28-4.06,0,0-10.53,13.23-20.11,9.59,0,0-5.25,15.75-18.62,15.79Z"/>
      <path class="cls-17" d="m88.26,140.81c-1.16-.69-2.57-.83-3.83-.33-.6.24-1.29.71-1.62,1.28-.23.41-.34,1.14.25,1.29.43.1.82-.22,1.14-.45.36-.26.82-.47,1.26-.56.8-.16,1.66.13,2.24.7,1.19,1.19.81,3.15.42,4.79-1.87-.19-3.81,1.07-4.2,2.98-.41,2.04,1.8,5.38,4.11,4.08.44-.25.47-.84,0-1.07-.99-.49-2.49-1.28-2.09-2.65.3-1.01,1.64-1.48,2.54-1.08.64.29,1.33-.18,1.45-.83.5-2.8,1.27-6.41-1.68-8.17Z"/>
      <path class="cls-17" d="m150.98,115.39s-16.66,3.65-23.28-4.06c0,0-10.53,13.23-20.11,9.59,0,0-5.25,15.75-18.62,15.79,10.5,5.01,19.46-5.37,21.19-11.34,0,0,12.13,1.37,17.79-7.88,0,0,12.17,6.88,20.83,1.14,0,0,6.92,8.52,22.26,7.71-.1-1.23-.23-2.4-.37-3.48,0,0-15.08-.98-19.69-7.46Z"/>
      <path class="cls-14" d="m95.23,190.93c1.88,3.54,4.33,6.81,7.47,9.3,3.99,3.16,8.75,5.08,13.46,6.88,5.04,1.92,10.22,3.25,15.66,2.82,5.13-.41,10.09-2.09,14.56-4.62,3.48-1.97,6.65-4.44,9.55-7.18-.78-.21-1.51-.4-2.18-.58-5.64,5.07-12.26,9.03-19.89,10.21-5.23.81-10.14-.16-15.08-1.88-4.56-1.59-9.21-3.34-13.26-6.01-3.69-2.43-6.27-5.79-8.68-9.34-.5.12-1.04.26-1.62.41Z"/>
      <path class="cls-17" d="m33.89,296.06c20.75.7,42.96-6.57,42.96-6.57h-42.92s-.07,2.58-.04,6.57Z"/>
      <path class="cls-17" d="m201.31,352.97c-.68-.62-.97-1.79-1.35-2.6-.46-.98-.94-1.95-1.44-2.92-1.02-1.97-2.15-3.9-3.41-5.72-1.2-1.73-2.54-3.38-4.02-4.87-.74-.74-1.5-1.45-2.33-2.1-.73-.57-1.5-1.26-2.47-1.28-.16,0-.33.18-.26.34.34.86,1.14,1.39,1.8,2,.79.72,1.56,1.46,2.28,2.25,1.48,1.61,2.77,3.38,3.94,5.22,1.14,1.79,2.15,3.65,3.07,5.55.47.98.92,1.97,1.35,2.97.39.89.66,1.94,1.41,2.61.97.87,2.41-.55,1.44-1.44Z"/>
      <path class="cls-17" d="m193.04,355.36c-.27-.67-.55-1.33-.88-1.97-.63-1.22-1.35-2.39-2.15-3.5-.81-1.11-1.69-2.16-2.67-3.13-.91-.91-1.99-1.94-3.25-2.31-.22-.06-.4.19-.29.38.61,1.13,1.65,2.02,2.48,2.99.85.99,1.63,2.03,2.33,3.12.71,1.1,1.33,2.24,1.87,3.43.27.59.53,1.19.76,1.8.25.65.44,1.37,1.16,1.61.34.11.68-.08.86-.35.42-.62.03-1.44-.22-2.06Z"/>
      <path class="cls-17" d="m182.04,352.95c-1.02-1.61-2.22-3.37-3.8-4.47-.39-.27-.76.24-.59.59.4.85.93,1.62,1.45,2.41.52.79,1.02,1.59,1.5,2.4.47.79.92,1.59,1.33,2.41.45.89.87,1.7,1.52,2.46.32.37,1.06.09,1.01-.42-.2-1.96-1.39-3.75-2.42-5.39Z"/>
      <path class="cls-17" d="m175.32,356.93c-.39-1.11-.94-2.17-1.48-3.21-.29-.56-.61-1.1-.95-1.64-.33-.53-.76-1.18-1.32-1.47-.23-.12-.53.03-.53.31,0,.53.27,1.1.49,1.58.25.53.51,1.06.78,1.59.52,1.03.95,2.11,1.46,3.14.22.45.6,1.32,1.24,1.15.62-.17.46-1,.3-1.45Z"/>
      <path class="cls-4" d="m145.37,353.34h98.79c2.65,0,4.8,2.15,4.8,4.8h0c0,2.65-2.15,4.8-4.8,4.8h-98.79c-2.65,0-4.8-2.15-4.8-4.8h0c0-2.65,2.15-4.8,4.8-4.8Z"/>
      <path class="cls-14" d="m248.96,358.14c0-2.65-2.15-4.8-4.8-4.8h-5.95l-.84,3.95c-.62,2.91,1.6,5.65,4.57,5.65h2.21c2.65,0,4.8-2.15,4.8-4.8Z"/>
      <path class="cls-4" d="m416.53,258.95h-151.14c-2.21,0-4.11,1.54-4.57,3.7l-20.16,94.64c-.62,2.91,1.6,5.65,4.57,5.65h151.14c2.21,0,4.11-1.54,4.57-3.7l20.16-94.64c.62-2.91-1.6-5.65-4.57-5.65Z"/>
      <circle class="cls-15" cx="330.88" cy="310.95" r="12.93"/>
      <path class="cls-17" d="m221,318.19c-.37-.14-.68-.36-1.04-.51-.3-.13-.58-.27-.87-.42-.63-.34-1.25-.69-1.8-1.17-.55-.48-1.04-1.02-1.5-1.59-.45-.57-.78-1.21-1.19-1.8-.19-.26-.65-.19-.64.17.02.83.37,1.61.77,2.33.41.72.97,1.38,1.59,1.92.63.55,1.35,1.09,2.13,1.41.37.16.77.31,1.16.39.42.09.86.06,1.28.05.48,0,.52-.63.11-.8Z"/>
      <path class="cls-17" d="m82.16,310.9c-.33-.15-.63-.38-.97-.5-.37-.13-.75-.26-1.12-.39-.71-.25-1.41-.53-2.08-.86-.67-.33-1.31-.72-1.93-1.12-.64-.41-1.23-.92-1.98-1.08-.15-.03-.28.09-.24.24.19.77.8,1.3,1.4,1.79.64.52,1.33.97,2.06,1.36.71.38,1.45.71,2.22.95.4.13.8.22,1.22.29.42.07.84,0,1.26-.04.31-.03.52-.49.17-.64Z"/>
      <path class="cls-14" d="m37.48,279.11c.11,0,.2-.02.28-.05,4.7,0,9.39.01,14.09.02,4.23,0,8.46.09,12.7.08,4.26,0,8.63.25,12.87-.2-.02.23-.03.45-.05.68-.12,1.71-.23,3.43-.35,5.14-.11,1.67-.57,3.7-.01,5.32.17.49.93.7,1.2.16.71-1.43.57-3.21.67-4.77l.33-5.38c.22-3.58.44-7.17.65-10.75.2-3.58.44-7.17.58-10.75.07-1.71.14-3.43.21-5.14.07-1.75.25-3.49-.06-5.22-.05-.29-.46-.24-.54,0-.51,1.61-.55,3.31-.69,4.98-.16,1.79-.32,3.58-.47,5.38-.31,3.5-.53,7.01-.78,10.52-.21,2.89-.4,5.78-.59,8.67-4.27-.46-8.66-.2-12.95-.2-4.23,0-8.46.08-12.7.08-4.7,0-9.39.02-14.09.02-.08-.03-.17-.05-.28-.05-3.84-.09-7.66.01-11.49.03-.33,0-.53.18-.62.42-.23.09-.23.46,0,.55.09.23.29.42.62.42,3.84.02,7.66.12,11.49.03Z"/>
      <path class="cls-14" d="m216.39,280.86c-4.8.45-9.6.86-14.41,1.17-3.19.2-6.38.37-9.57.51-1.56.07-3.11.14-4.67.2-1.59.06-3.26-.01-4.82.31-.06.01-.11.04-.15.07,0-.16-.02-.32-.03-.48-.2-3.52-.39-7.04-.59-10.56-.39-6.81-.51-13.75-1.47-20.5-.05-.37-.63-.26-.64.09-.11,3.44.13,6.89.28,10.33.15,3.52.33,7.04.52,10.56.18,3.44.37,6.88.55,10.33.18,3.38.13,6.89.7,10.24.06.38.41.46.69.35l-.02-.2h.3c.06-.09.1-.18.11-.3.17-2.92-.13-5.92-.34-8.85.03.01.05.03.09.03,1.5.24,3.07.11,4.59.07,1.63-.04,3.27-.08,4.9-.15,3.19-.13,6.38-.3,9.57-.5,4.92-.31,9.82-.71,14.72-1.19-.1-.49-.21-1-.32-1.52Z"/>
      <path class="cls-14" d="m159.19,303.51c-1.71.19-3.33,1.04-4.93,1.63-1.65.6-3.31,1.17-4.99,1.69-3.42,1.06-6.91,1.92-10.43,2.57-7.11,1.32-14.39,1.8-21.62,1.42-4.06-.21-8.08-.83-12.12-1.22-.44-.04-.5.63-.1.75,6.9,2.01,14.56,2.23,21.7,1.96,7.3-.28,14.58-1.42,21.61-3.39,2.03-.57,4.04-1.2,6.02-1.92,1.77-.65,3.83-1.22,5.29-2.46.38-.33.09-1.1-.43-1.04Z"/>
      <path class="cls-14" d="m163.51,307.98c-.99.2-1.93.69-2.83,1.14-.96.48-1.92.95-2.9,1.4-.94.44-1.9.82-2.85,1.24-.87.39-1.98.72-2.61,1.48-.07.09-.05.23.07.26.96.25,2.05-.19,2.96-.47,1.02-.32,2.01-.74,3-1.15.99-.41,1.96-.85,2.92-1.34.95-.49,1.95-1.03,2.67-1.83.3-.34,0-.82-.43-.74Z"/>
      <path class="cls-14" d="m127,127.22c-1.54-.5-3.17-.36-4.72.06-1.48.4-3.03,1.04-4.23,2-1.22.98-2.56,2.22-2.74,3.86-.15,1.43,1.08,2.34,2.39,2.25,1.01-.07,1.84-.68,2.75-1.07.66-.28,1.34-.54,2.02-.78,1.41-.38,2.88-.49,4.27-.92-.26.08-.51.16-.77.24.58-.17,1.16-.29,1.68-.61.56-.36,1.01-.82,1.25-1.46.55-1.47-.45-3.11-1.88-3.58Z"/>
      <path class="cls-14" d="m159.37,134.7c-.16-.47-.33-.92-.65-1.32-.19-.24-.4-.47-.62-.69-.56-.57-1.15-1.14-1.8-1.61-.63-.46-1.35-.83-2.05-1.16-.29-.14-.58-.28-.89-.38-.45-.14-.94-.21-1.41-.27-.87-.11-1.85.47-2.13,1.31-.28.84-.06,1.9.73,2.4.17.11.33.22.5.33.3.21.62.38.95.55-.17-.09-.34-.18-.51-.27.99.53,1.92,1.22,2.77,1.97.23.22.46.45.67.69.38.44.82.73,1.27,1.08.72.55,1.92.52,2.6-.1.27-.25.48-.54.63-.88.23-.54.13-1.12-.06-1.65Z"/>
      <path class="cls-14" d="m129.6,144.63c0-1.82-.49-3.56-1.5-4.56-.38-.38-.82-.64-1.33-.78-.48-.23-.99-.32-1.52-.29-1.06.08-2.15.47-2.86,1.3-.2.28-.4.56-.6.84-.91,1.29-.8,4.22-.83,5.72-.04,1.8.72,3.85,2.61,4.39.47.22.98.32,1.51.29,2.96-.19,4.51-3.68,4.52-6.91Z"/>
      <path class="cls-14" d="m155.83,147.41c0-1.75-.47-3.42-1.45-4.39-.37-.36-.79-.61-1.28-.75-.46-.22-.95-.31-1.47-.28-1.02.07-2.07.45-2.75,1.25-.19.27-.38.54-.57.81-.88,1.24-.77,4.06-.8,5.5-.04,1.73.7,3.7,2.51,4.22.45.22.94.31,1.45.28,2.85-.18,4.34-3.54,4.34-6.64Z"/>
      <path class="cls-17" d="m140.06,154.64c-.75-1.04-1.23-2.2-1.4-3.48-.09-.63-.09-1.26-.02-1.9.07-.63.38-1.34-.08-1.89-.2-.24-.48-.26-.75-.17-1.02.32-1,2.34-.99,3.2.02,1.26.26,2.49.75,3.65.23.55.53,1.06.85,1.55.3.45.75.96.85,1.51.09.47-.29.73-.62,1-.54.45-1.19.89-1.53,1.51-.33.6.04,1.45.82,1.31,1.22-.22,2.57-1.42,3.09-2.54.64-1.38-.18-2.66-.97-3.76Z"/>
      <path class="cls-17" d="m140.41,166.43c-1.18-.36-2.41-.57-3.64-.57-1.28,0-2.57.15-3.79.58-.53.19-1.06.44-1.54.73-.54.33-1.25.73-1.3,1.43-.02.32.15.58.43.7.49.22,1-.02,1.47-.17.51-.16,1.03-.29,1.56-.39.99-.19,1.97-.33,2.98-.29.99.05,1.93.21,2.85.53,1.04.36,2.13,1.21,3.27,1.03.53-.09,1.01-.66.87-1.22-.35-1.4-1.91-2-3.17-2.38Z"/>
      <path class="cls-6" d="m129.69,139.71c-.08-.12-.16-.25-.24-.38-.14-.18-.31-.31-.51-.4-.19-.12-.4-.19-.62-.21-.01,0-.03,0-.04,0-.31-.03-.61.02-.9.15-.27.13-.5.32-.68.56-.07.13-.14.26-.21.39-.11.29-.14.59-.09.89.03.23.12.44.25.63.1.2.25.36.44.49.25.17.52.28.82.31.31.03.61-.02.9-.15h.04c.12-.09.25-.17.37-.25.18-.14.31-.31.4-.51.09-.12.14-.26.16-.41.07-.22.08-.44.04-.67-.05-.15-.09-.29-.14-.44Z"/>
      <path class="cls-6" d="m155.89,142.49c-.08-.12-.16-.25-.24-.37-.14-.18-.31-.31-.51-.4-.19-.12-.4-.19-.62-.21-.01,0-.03,0-.04,0-.31-.03-.61.02-.9.15-.27.13-.5.32-.68.56-.07.13-.14.26-.21.39-.11.29-.14.59-.09.89.03.23.11.44.25.63.1.2.25.36.44.49.25.17.52.28.82.31.31.03.61-.02.9-.15.01,0,.03,0,.04-.01.12-.08.25-.16.37-.24.18-.14.31-.31.4-.51.09-.12.14-.26.15-.41.07-.22.08-.44.04-.67-.05-.15-.09-.29-.14-.44Z"/>
    </g>
    <g>
      <g>
        <g>
          <rect class="cls-10" x="38.49" y="52.71" width="31.08" height="31.08"/>
          <circle class="cls-10" cx="54.15" cy="56.19" r="2.01"/>
        </g>
        <g>
          <rect class="cls-6" x="40.14" y="50.59" width="31.08" height="31.08"/>
          <path class="cls-4" d="m57.81,54.07c0,1.11-.9,2.01-2.01,2.01s-2.01-.9-2.01-2.01.9-2.01,2.01-2.01,2.01.9,2.01,2.01Z"/>
        </g>
      </g>
      <g>
        <g>
          <rect class="cls-10" x="7.18" y="97.56" width="31.08" height="31.08"/>
          <path class="cls-10" d="m24.85,101.04c0,1.11-.9,2.01-2.01,2.01s-2.01-.9-2.01-2.01.9-2.01,2.01-2.01,2.01.9,2.01,2.01Z"/>
        </g>
        <g>
          <rect class="cls-6" x="8.82" y="95.44" width="31.08" height="31.08"/>
          <circle class="cls-4" cx="24.48" cy="98.93" r="2.01"/>
        </g>
      </g>
    </g>
  </g>
  <g id="TEXT">
    <g>
      <text class="cls-2" transform="translate(153.12 50.79) rotate(2.42)"><tspan x="0" y="0">?</tspan></text>
      <text class="cls-1" transform="translate(179.22 55.59) rotate(40.95)"><tspan x="0" y="0">?</tspan></text>
      <text class="cls-3" transform="translate(123.52 50.42) rotate(-13.97)"><tspan x="0" y="0">?</tspan></text>
    </g>
    <text class="cls-5" transform="translate(298.77 159.99)"><tspan x="0" y="0">NO </tspan><tspan class="cls-8" x="26.08" y="0">D</tspan><tspan class="cls-11" x="36.52" y="0">AT</tspan><tspan class="cls-12" x="53.64" y="0">A</tspan></text>
  </g>
</svg>