<svg xmlns="http://www.w3.org/2000/svg" viewBox="0 0 750 500"><g id="freepik--background-complete--inject-112"><rect x="159.37" y="49.19" width="7.15" height="153.76" style="fill:#e0e0e0"></rect><rect x="55.64" y="50.38" width="102.65" height="152.78" rx="0.1" style="fill:#f5f5f5"></rect><path d="M159.37,204.35H54.55a.1.1,0,0,1-.1-.11v-155a.09.09,0,0,1,.1-.1H159.37a.1.1,0,0,1,.11.1v155A.11.11,0,0,1,159.37,204.35ZM56.93,202H157a.11.11,0,0,0,.11-.11V51.67a.1.1,0,0,0-.11-.1H56.93a.09.09,0,0,0-.1.1V201.86A.1.1,0,0,0,56.93,202Z" style="fill:#ebebeb"></path><rect x="65.97" y="59.8" width="82.16" height="133.83" rx="0.1" style="fill:#fff"></rect><rect x="83.9" y="97.74" width="46.13" height="54.07" rx="0.06" style="fill:#ebebeb"></rect><path d="M126.38,145.19c.06.18-2.22,1.18-6.55.67a16,16,0,0,1-7.37-3,15,15,0,0,1-5.72-9,12.93,12.93,0,0,1,4.38-12.3,11.67,11.67,0,0,1,3.32-2,8.7,8.7,0,0,1,4.15-.47,7.33,7.33,0,0,1,4.15,1.81,5.41,5.41,0,0,1,1.63,4.83,7.86,7.86,0,0,1-2.28,4.15,14.73,14.73,0,0,1-3.47,2.56,19.06,19.06,0,0,1-8.29,2.37,16.57,16.57,0,0,1-8.84-2,16.13,16.13,0,0,1-6.5-6.74,13.81,13.81,0,0,1-1.17-9.44,14,14,0,0,1,5-7.78,12.15,12.15,0,0,1,4.17-2.1,10.36,10.36,0,0,1,4.7-.15,7.71,7.71,0,0,1,4.26,2.4,7.14,7.14,0,0,1,1.67,4.56,8.76,8.76,0,0,1-1.11,4.34,11.7,11.7,0,0,1-2.63,3.16,17.73,17.73,0,0,1-6.54,3.47,16.64,16.64,0,0,1-6.87.53,14.12,14.12,0,0,1-6-2.29,13,13,0,0,1-5.71-9.05,10.91,10.91,0,0,1,2.11-7.76,9.28,9.28,0,0,1,3.92-3.13c1.08-.41,1.69-.4,1.72-.29s-.49.38-1.36,1a10.23,10.23,0,0,0-3,3.28,9.61,9.61,0,0,0-1.24,6.63,10.79,10.79,0,0,0,5.08,7.11,12.47,12.47,0,0,0,10.48,1,14.74,14.74,0,0,0,5.24-3,6.41,6.41,0,0,0,2.45-4.91,3.53,3.53,0,0,0-3.15-3.49,6.74,6.74,0,0,0-3,.14,8.76,8.76,0,0,0-2.85,1.49,10.38,10.38,0,0,0-3.58,5.72,10,10,0,0,0,.88,6.86,12.46,12.46,0,0,0,5,5.16,13,13,0,0,0,6.83,1.59,15.6,15.6,0,0,0,6.71-1.84,11.42,11.42,0,0,0,2.68-1.89,4.49,4.49,0,0,0,1.36-2.22,1.92,1.92,0,0,0-.55-1.78,4,4,0,0,0-2.22-1,5.71,5.71,0,0,0-2.61.22,8.66,8.66,0,0,0-2.44,1.34,10.13,10.13,0,0,0-3.71,9.41,13,13,0,0,0,4.39,7.78,15.55,15.55,0,0,0,6.32,3.16C124,145.31,126.35,144.86,126.38,145.19Z" style="fill:#e0e0e0"></path><rect x="620.28" y="61.73" width="81.66" height="85.13" style="fill:#e0e0e0"></rect><rect x="614.75" y="61.73" width="81.66" height="85.13" style="fill:#fafafa"></rect><path d="M696.44,146.89H614.73V61.71h81.71Zm-81.66-.06h81.61V61.76H614.78Z" style="fill:#e0e0e0"></path><rect x="625.73" y="73.18" width="59.71" height="62.24" style="fill:#fff"></rect><path d="M625.73,135.83a9.29,9.29,0,0,1-1.47,1.71c-1,1-2.3,2.37-3.8,3.85s-2.88,2.8-3.9,3.73a9.15,9.15,0,0,1-1.73,1.44,9.89,9.89,0,0,1,1.47-1.7c1-1,2.3-2.38,3.8-3.86s2.89-2.8,3.91-3.74A8.83,8.83,0,0,1,625.73,135.83Z" style="fill:#e0e0e0"></path><path d="M685.44,135.68a10.14,10.14,0,0,1,1.71,1.47c1,.95,2.37,2.29,3.85,3.8s2.8,2.88,3.73,3.9a9.72,9.72,0,0,1,1.44,1.72,9.73,9.73,0,0,1-1.71-1.46c-1-1-2.37-2.3-3.85-3.81s-2.81-2.89-3.74-3.9A9.2,9.2,0,0,1,685.44,135.68Z" style="fill:#e0e0e0"></path><path d="M685.27,73.34a10.57,10.57,0,0,1,1.48-1.71c1-1,2.29-2.37,3.79-3.85s2.89-2.8,3.9-3.73a9.53,9.53,0,0,1,1.73-1.44,9.57,9.57,0,0,1-1.47,1.71c-1,1-2.29,2.37-3.8,3.85S688,71,687,71.91A8.83,8.83,0,0,1,685.27,73.34Z" style="fill:#e0e0e0"></path><path d="M625.57,73.49A9,9,0,0,1,623.85,72c-1-1-2.37-2.29-3.84-3.79s-2.8-2.89-3.74-3.9a10.11,10.11,0,0,1-1.44-1.73,9.17,9.17,0,0,1,1.71,1.47c1,1,2.37,2.29,3.86,3.8s2.8,2.89,3.74,3.91A10.59,10.59,0,0,1,625.57,73.49Z" style="fill:#e0e0e0"></path><path d="M685.27,135.42s0-.11,0-.31,0-.49,0-.86c0-.78,0-1.91,0-3.36,0-2.95,0-7.24-.06-12.69,0-10.9-.07-26.43-.12-45l.23.23-59.53,0h0l.26-.26c0,22.84,0,44.21,0,62.24l-.23-.23,43.11.12,12.11.05,3.21,0H685l.28,0h-1.06l-3.16,0-12.06.06-43.26.11h-.23v-.22c0-18,0-39.4,0-62.24v-.27h.28l59.53,0h.24v.23c0,18.65-.08,34.23-.11,45.17,0,5.42,0,9.69-.06,12.63,0,1.44,0,2.55,0,3.32,0,.36,0,.63,0,.84A1.45,1.45,0,0,1,685.27,135.42Z" style="fill:#e0e0e0"></path><rect x="645.62" y="94.33" width="19.92" height="19.92" style="fill:#ebebeb"></rect><rect x="620.28" y="176.63" width="81.66" height="85.13" style="fill:#e0e0e0"></rect><rect x="614.75" y="176.63" width="81.66" height="85.13" style="fill:#fafafa"></rect><path d="M696.44,261.78H614.73V176.6h81.71Zm-81.66,0h81.61V176.65H614.78Z" style="fill:#e0e0e0"></path><rect x="625.73" y="188.07" width="59.71" height="62.24" style="fill:#fff"></rect><path d="M625.73,250.72a9.51,9.51,0,0,1-1.47,1.72c-1,1-2.3,2.36-3.8,3.84s-2.88,2.8-3.9,3.74a8.81,8.81,0,0,1-1.73,1.43,10.36,10.36,0,0,1,1.47-1.7c1-1,2.3-2.37,3.8-3.86s2.89-2.8,3.91-3.74A9.89,9.89,0,0,1,625.73,250.72Z" style="fill:#e0e0e0"></path><path d="M685.44,250.57a10.14,10.14,0,0,1,1.71,1.47c1,1,2.37,2.3,3.85,3.8s2.8,2.88,3.73,3.9a9.15,9.15,0,0,1,1.44,1.73,10.14,10.14,0,0,1-1.71-1.47c-1-.95-2.37-2.3-3.85-3.8s-2.81-2.89-3.74-3.91A8.83,8.83,0,0,1,685.44,250.57Z" style="fill:#e0e0e0"></path><path d="M685.27,188.23a10.57,10.57,0,0,1,1.48-1.71c1-1,2.29-2.37,3.79-3.85s2.89-2.79,3.9-3.73a9.53,9.53,0,0,1,1.73-1.44,9.17,9.17,0,0,1-1.47,1.71c-1,1-2.29,2.37-3.8,3.85S688,185.87,687,186.8A8.83,8.83,0,0,1,685.27,188.23Z" style="fill:#e0e0e0"></path><path d="M625.57,188.39a9.89,9.89,0,0,1-1.72-1.48c-1-.95-2.37-2.29-3.84-3.79s-2.8-2.88-3.74-3.9a10.11,10.11,0,0,1-1.44-1.73,9.17,9.17,0,0,1,1.71,1.47c1,.95,2.37,2.3,3.86,3.8s2.8,2.89,3.74,3.91A9.89,9.89,0,0,1,625.57,188.39Z" style="fill:#e0e0e0"></path><path d="M685.27,250.31s0-.11,0-.3,0-.5,0-.87q0-1.17,0-3.36c0-2.95,0-7.24-.06-12.69,0-10.9-.07-26.43-.12-45l.23.23-59.53,0h0l.26-.26c0,22.84,0,44.22,0,62.24l-.23-.23,43.11.12,12.11.06,3.21,0,.83,0h-.78l-3.16,0-12.06.06-43.26.12h-.23v-.23c0-18,0-39.4,0-62.24v-.27h.28l59.53,0h.24v.23c0,18.65-.08,34.23-.11,45.17,0,5.43,0,9.7-.06,12.63,0,1.44,0,2.55,0,3.32,0,.36,0,.64,0,.84A1.45,1.45,0,0,1,685.27,250.31Z" style="fill:#e0e0e0"></path><rect x="645.62" y="209.23" width="19.92" height="19.92" style="fill:#ebebeb"></rect><path d="M508.37,120.63a51,51,0,1,1-49.3-52.45A50.9,50.9,0,0,1,508.37,120.63Z" style="fill:#ebebeb"></path><path d="M497.64,120.81a38.84,38.84,0,1,1-37.57-40A38.8,38.8,0,0,1,497.64,120.81Z" style="fill:#ebebeb"></path><path d="M496.25,120.24a4.53,4.53,0,0,1-.05-.63c0-.46,0-1.07-.07-1.84,0-.41,0-.87-.05-1.36s-.13-1-.2-1.63a28.39,28.39,0,0,0-.69-4,37.08,37.08,0,0,0-4-10.39,38.82,38.82,0,0,0-50.75-15.79c-.83.41-1.62.89-2.44,1.34a19.83,19.83,0,0,0-2.37,1.52A41.87,41.87,0,0,0,431.15,91a43.65,43.65,0,0,0-3.91,4.32,37,37,0,0,0-5.83,10.38,37.83,37.83,0,0,0-.78,24.21,36.78,36.78,0,0,0,5.16,10.74,42.5,42.5,0,0,0,3.62,4.57,43.63,43.63,0,0,0,4.24,3.83,40.16,40.16,0,0,0,4.61,3.17,38.68,38.68,0,0,0,51.67-12.5,37.07,37.07,0,0,0,4.65-10.11,28.39,28.39,0,0,0,.95-4c.11-.58.23-1.11.31-1.6s.09-1,.13-1.35c.08-.78.14-1.39.19-1.84a5.14,5.14,0,0,1,.09-.62,3,3,0,0,1,0,.63c0,.45-.06,1.06-.11,1.84,0,.41-.06.87-.09,1.36s-.17,1-.27,1.63a28.39,28.39,0,0,1-.88,4A36.68,36.68,0,0,1,490.31,140a39,39,0,0,1-26.88,17.62,39.31,39.31,0,0,1-20.51-2.3,41.27,41.27,0,0,1-5-2.39,42.17,42.17,0,0,1-4.71-3.22,36.21,36.21,0,0,1-8-8.56,37.75,37.75,0,0,1-5.28-11,38.67,38.67,0,0,1,.8-24.72,37.93,37.93,0,0,1,6-10.6,45.23,45.23,0,0,1,4-4.4,44.62,44.62,0,0,1,4.58-3.62,18.65,18.65,0,0,1,2.42-1.54c.83-.46,1.65-1,2.49-1.37a39.88,39.88,0,0,1,5.18-2.06,39.27,39.27,0,0,1,20.61-1,39.08,39.08,0,0,1,25.7,19.31,36.35,36.35,0,0,1,3.9,10.54,26.8,26.8,0,0,1,.63,4.06c.06.59.14,1.13.16,1.64s0,.95,0,1.36c0,.78,0,1.39,0,1.85A2.51,2.51,0,0,1,496.25,120.24Z" style="fill:#e0e0e0"></path><path d="M461.09,142.28l-.12,6.77-6-.11.12-6.58c-6-.47-11.68-2.44-14.95-5.1l3.45-7.31a24.37,24.37,0,0,0,11.64,4.5l.17-10.09c-6.67-1.75-14.12-4.11-14-12.75.12-6.4,4.86-11.81,14.42-12.73l.12-6.7,6,.1-.12,6.59a27.33,27.33,0,0,1,12.2,3.89l-3.15,7.38a24.72,24.72,0,0,0-9.19-3.31l-.18,10.27c6.68,1.69,14,4.06,13.85,12.57C475.27,136,470.59,141.3,461.09,142.28Zm-5.57-26.8.15-8.57c-3.21.67-4.51,2.4-4.55,4.39S452.88,114.59,455.52,115.48Zm10.13,14.74c0-2.11-1.69-3.29-4.27-4.24l-.15,8.33C464.26,133.7,465.62,132.15,465.65,130.22Z" style="fill:#e0e0e0"></path><path d="M505.81,166.34a70.59,70.59,0,0,1-67.08,15.57c-19.25-5.62-35.75-19.76-43.4-38.42a63.56,63.56,0,0,1,5.37-58.1C411.8,68.05,431,56.7,451.46,54.73c25.67-2.48,51.06,9.26,65.12,31,2.09,3.23,7.28.23,5.18-3A75.41,75.41,0,0,0,460.1,48.41c-22.67-.47-45.16,9.41-59.55,27a69.84,69.84,0,0,0-13.34,62.82c6.05,21.43,22.41,38.68,42.93,47,27,11,58.48,4.9,79.91-14.67,2.86-2.61-1.4-6.85-4.24-4.25Z" style="fill:#f5f5f5"></path><polygon points="500.25 83.74 524.7 67.28 524.7 92.17 500.25 83.74" style="fill:#f5f5f5"></polygon></g><g id="freepik--Floor--inject-112"><path d="M691.74,469.79c0,.15-143.61.26-320.72.26s-320.76-.11-320.76-.26,143.58-.26,320.76-.26S691.74,469.65,691.74,469.79Z" style="fill:#263238"></path></g><g id="freepik--Arrow--inject-112"><path d="M407.29,204.36s36.65,9.66,48.24,48.31L440,259.58s-3.57-26.89-39.88-38.6c-19.65-6.34-45.67,2.6-52.87,10.8l-17.49-7.55C341.45,211.36,370.3,194.28,407.29,204.36Z" style="fill:#1E81F6"></path><polygon points="465.5 242.93 426.76 255.78 456.49 270.68 465.5 242.93" style="fill:#1E81F6"></polygon></g><g id="freepik--Device--inject-112"><path d="M361.57,469.79l-137-.08c-16.48,0-29.83-14-29.83-31.37l.07-360.95c0-17.32,13.38-31.36,29.86-31.35l137,.08c16.48,0,29.83,14.06,29.83,31.37l-.07,361C391.43,455.76,378.06,469.8,361.57,469.79Z" style="fill:#263238"></path><path d="M361.53,58.89l-26.56,0c-3.57,0-6.46,3.17-6.46,7.08V71c0,3.91-2.89,7.08-6.45,7.08l-51.77,0c-3.56,0-6.45-3.18-6.45-7.09V65.91c0-3.91-2.89-7.08-6.45-7.08h-9.34l-23.25,0c-11.55,0-20.91,9.83-20.91,22l-.07,352.31c0,12.13,9.35,22,20.89,22l136.73.09c11.54,0,20.91-9.83,20.91-22l.07-352.31C382.42,68.73,373.07,58.9,361.53,58.89Z" style="fill:#fff"></path><path d="M232.77,427.26V437.6a1.13,1.13,0,0,1-1.74,1l-8.13-5.17a1.14,1.14,0,0,1,0-1.92L231,426.3A1.13,1.13,0,0,1,232.77,427.26Z" style="fill:#e0e0e0"></path><path d="M299.56,432.33a7.13,7.13,0,1,1-7.13-7.14A7.14,7.14,0,0,1,299.56,432.33Z" style="fill:#e0e0e0"></path><rect x="350.72" y="426.12" width="13.15" height="13.18" rx="1.87" style="fill:#e0e0e0"></rect><path d="M253.52,186.12h11l-2.14-1.63q2.43,8,4.87,16l7.71,25.4c.59,2,1.19,3.9,1.78,5.85a2.28,2.28,0,0,0,2.14,1.63l31.46-.09h4.51c2.85,0,2.86-4.44,0-4.43l-31.46.08-4.51,0,2.14,1.62-4.86-16-7.72-25.39-1.78-5.86a2.28,2.28,0,0,0-2.14-1.63h-11c-2.86,0-2.86,4.44,0,4.44Z" style="fill:#263238"></path><path d="M321.86,191.77q-3.11,13.92-6.22,27.84c-.29,1.33-.59,2.67-.89,4l1.61-1.22-13.47-.13-21.6-.21-4.94-.05,1.6,1.22q-4.32-13.78-8.66-27.57l-1.22-3.88-1.61,2.1h57a1.67,1.67,0,0,0,0-3.33h-57a1.68,1.68,0,0,0-1.6,2.11q4.33,13.78,8.66,27.57c.41,1.29.82,2.59,1.22,3.88a1.73,1.73,0,0,0,1.61,1.23l13.47.13,21.6.21,4.94.05a1.7,1.7,0,0,0,1.6-1.22l6.21-27.85.9-4C325.53,190.56,322.33,189.67,321.86,191.77Z" style="fill:#263238"></path><path d="M277.8,193.19c1.75,10.15,4,20.22,5.73,30.37.36,2.11,3.57,1.21,3.21-.88-1.75-10.16-4-20.22-5.73-30.38-.36-2.1-3.57-1.21-3.21.89Z" style="fill:#263238"></path><path d="M295.37,192.75q.25,15.62.53,31.23c0,2.14,3.36,2.15,3.33,0q-.25-15.61-.53-31.23c0-2.14-3.36-2.15-3.33,0Z" style="fill:#263238"></path><path d="M311.6,224.36l4.23-27.74.6-4a1.73,1.73,0,0,0-1.16-2.05,1.69,1.69,0,0,0-2,1.17q-2.12,13.86-4.22,27.74c-.2,1.32-.41,2.64-.61,4a1.73,1.73,0,0,0,1.16,2.05,1.67,1.67,0,0,0,2.05-1.16Z" style="fill:#263238"></path><path d="M270.09,203.61h50.33a1.67,1.67,0,0,0,0-3.33H270.09a1.67,1.67,0,0,0,0,3.33Z" style="fill:#263238"></path><path d="M274.81,215.29h43.58a1.66,1.66,0,0,0,0-3.32H274.81a1.66,1.66,0,0,0,0,3.32Z" style="fill:#263238"></path><circle cx="314.83" cy="242.05" r="5.92" style="fill:#263238"></circle><circle cx="282.27" cy="242.05" r="5.92" style="fill:#263238"></circle><path d="M270.92,162.32s-24.35-.82-38.63,20.85l8.32,7.13s7.17-15.9,31.69-16.41c13.28-.27,22.4,7.46,25.33,13.84l15.05-.26C307.83,177.38,295.56,162.94,270.92,162.32Z" style="fill:#1E81F6"></path><polygon points="229.07 176.11 250.56 191.18 231.04 195.14 229.07 176.11" style="fill:#1E81F6"></polygon><path d="M371.36,96a2.42,2.42,0,1,1-2.42-2.41A2.42,2.42,0,0,1,371.36,96Z" style="fill:#263238"></path><circle cx="368.94" cy="102.61" r="2.42" style="fill:#263238"></circle><circle cx="368.94" cy="109.22" r="2.42" style="fill:#263238"></circle><polygon points="224.84 94.85 214.97 102.25 217.48 102.25 217.48 111.09 222.8 111.11 222.8 104.49 227 104.47 227 111.09 232.14 111.09 232.14 102.16 234.7 102.13 224.84 94.85" style="fill:#263238"></polygon><path d="M383.05,120.41c0,.14-40.27.26-89.93.26s-89.93-.12-89.93-.26,40.26-.26,89.93-.26S383.05,120.27,383.05,120.41Z" style="fill:#e0e0e0"></path><rect x="279.82" y="286.89" width="21.2" height="98.44" rx="9.8" style="fill:#e0e0e0"></rect><path d="M331.7,338.45a34.17,34.17,0,1,1-34.22-34.05A34.13,34.13,0,0,1,331.7,338.45Z" style="fill:#1E81F6"></path><path d="M324.51,338.81a26,26,0,1,1-26.08-25.95A26,26,0,0,1,324.51,338.81Z" style="fill:#1E81F6"></path><path d="M323.57,338.46a2,2,0,0,1-.05-.42c0-.31-.06-.72-.09-1.24q0-.41-.06-.9c0-.34-.11-.7-.18-1.09a18.55,18.55,0,0,0-.55-2.68,25,25,0,0,0-2.91-6.87,26,26,0,0,0-17.48-12.07,26,26,0,0,0-13.53,1.14,26.83,26.83,0,0,0-3.36,1.48c-.54.3-1.06.64-1.6,1a12.56,12.56,0,0,0-1.55,1.07,29.8,29.8,0,0,0-2.93,2.48,30.39,30.39,0,0,0-2.52,3,24.89,24.89,0,0,0-3.68,7.09,27.23,27.23,0,0,0-1.32,8.12,27.57,27.57,0,0,0,1.34,8.12,24.88,24.88,0,0,0,3.7,7.08,29,29,0,0,0,2.53,3,29.8,29.8,0,0,0,2.93,2.48,26.39,26.39,0,0,0,3.16,2,27.6,27.6,0,0,0,3.36,1.47,26,26,0,0,0,13.54,1.11,25.64,25.64,0,0,0,10.86-4.8,26,26,0,0,0,6.59-7.32,25.12,25.12,0,0,0,2.89-6.88,17.89,17.89,0,0,0,.54-2.68c.06-.39.14-.75.17-1.08s0-.63.06-.91q.06-.78.09-1.23a2,2,0,0,1,.05-.42,2.21,2.21,0,0,1,0,.42l0,1.24c0,.27,0,.58,0,.91s-.09.7-.15,1.1a16.87,16.87,0,0,1-.5,2.7,24.32,24.32,0,0,1-2.83,7,26.29,26.29,0,0,1-17.63,12.41,26.32,26.32,0,0,1-13.79-1.09,27.16,27.16,0,0,1-3.43-1.49,26.21,26.21,0,0,1-3.23-2,30.8,30.8,0,0,1-3-2.52,30.21,30.21,0,0,1-2.58-3,25.32,25.32,0,0,1-3.79-7.23,25.86,25.86,0,0,1,0-16.58,25.3,25.3,0,0,1,3.76-7.24,28,28,0,0,1,2.58-3,29.65,29.65,0,0,1,3-2.53,13,13,0,0,1,1.58-1.09c.55-.32,1.08-.67,1.64-1a27.23,27.23,0,0,1,3.43-1.5,26.33,26.33,0,0,1,13.79-1.12,26,26,0,0,1,11,4.92,25.69,25.69,0,0,1,6.63,7.45,24.4,24.4,0,0,1,2.86,7,18.17,18.17,0,0,1,.5,2.71c.06.39.12.76.15,1.09l0,.92c0,.52,0,.93,0,1.24A2.21,2.21,0,0,1,323.57,338.46Z" style="fill:#263238"></path><g style="opacity:0.30000000000000004"><path d="M323.36,338.73c-.15,0-.26-1.14-.68-3.13a27.77,27.77,0,0,0-3-8,26.48,26.48,0,0,0-3.42-4.73,26,26,0,0,0-5.08-4.29,24.24,24.24,0,0,0-3.14-1.72,25.16,25.16,0,0,0-7.29-2.08,26.21,26.21,0,0,0-4-.19,25.67,25.67,0,0,0-3.95.45,25,25,0,0,0-3.73,1,23.41,23.41,0,0,0-3.41,1.53,23.69,23.69,0,0,0-3,1.93,26.13,26.13,0,0,0-4.8,4.62,26.75,26.75,0,0,0-3.1,4.94,27.77,27.77,0,0,0-2.46,8.16c-.29,2-.33,3.16-.48,3.17s-.34-1.14-.29-3.24a24.23,24.23,0,0,1,2-8.67,26.38,26.38,0,0,1,11.29-12.58,25.47,25.47,0,0,1,3.66-1.69,26.08,26.08,0,0,1,4-1.14,27.36,27.36,0,0,1,4.27-.49,27.78,27.78,0,0,1,4.29.21,25.8,25.8,0,0,1,4.07.87,25.92,25.92,0,0,1,7.11,3.37,26.31,26.31,0,0,1,5.31,4.73,26.85,26.85,0,0,1,3.43,5.16,24.54,24.54,0,0,1,2.51,8.52C323.63,337.57,323.48,338.73,323.36,338.73Z"></path></g><g style="opacity:0.30000000000000004"><path d="M300.49,354l.07,4.53-4.05.07-.07-4.42c-4-.18-7.87-1.37-10.13-3.08l2.15-5a16.46,16.46,0,0,0,7.9,2.75l-.11-6.76c-4.51-1-9.55-2.45-9.64-8.24-.07-4.29,3-8,9.38-8.85l-.07-4.5,4.05-.06.07,4.41a18.37,18.37,0,0,1,8.25,2.34l-1.94,5a16.62,16.62,0,0,0-6.23-2l.11,6.88c4.51,1,9.47,2.41,9.56,8.11C309.86,349.46,306.84,353.15,300.49,354Zm-4.33-17.84-.09-5.75c-2.14.52-3,1.71-2.95,3.05S294.37,335.65,296.16,336.18Zm7.12,9.65c0-1.41-1.21-2.16-3-2.75l.09,5.59C302.43,348.2,303.3,347.13,303.28,345.83Z"></path></g><rect x="239.6" y="290.84" width="39.44" height="88.16" style="fill:#fff"></rect></g><g id="freepik--Coins--inject-112"><path d="M497.94,330.74a36.51,36.51,0,1,1-43.58-27.57A36.46,36.46,0,0,1,497.94,330.74Z" style="fill:#1E81F6"></path><path d="M490.52,332.78a27.82,27.82,0,1,1-33.21-21A27.78,27.78,0,0,1,490.52,332.78Z" style="fill:#1E81F6"></path><path d="M489.46,332.63a2.23,2.23,0,0,1-.15-.42l-.38-1.27-.27-.93c-.12-.34-.28-.7-.43-1.09a21,21,0,0,0-1.2-2.66,26.73,26.73,0,0,0-4.63-6.5,27.64,27.64,0,0,0-34.87-4.2,29.09,29.09,0,0,0-3.16,2.32c-.5.44-1,.92-1.45,1.37a13.72,13.72,0,0,0-1.37,1.48,29.79,29.79,0,0,0-2.47,3.27,30.82,30.82,0,0,0-1.94,3.69,26.48,26.48,0,0,0-2.19,8.25,27.1,27.1,0,0,0,3.78,16.93,26.55,26.55,0,0,0,5.5,6.53,25,25,0,0,0,7,4.42A27.5,27.5,0,0,0,455,365.2a28.92,28.92,0,0,0,3.84.75,27.67,27.67,0,0,0,29.76-18.67,26.37,26.37,0,0,0,1.42-7.84,21.11,21.11,0,0,0-.05-2.92c0-.42,0-.81-.08-1.17s-.1-.67-.15-1c-.08-.55-.14-1-.19-1.31a2.84,2.84,0,0,1-.05-.45,2.41,2.41,0,0,1,.11.44c.06.32.14.75.25,1.3q.07.44.18,1c0,.36.06.75.1,1.18a19.34,19.34,0,0,1,.1,2.94,26.15,26.15,0,0,1-1.33,7.94,28,28,0,0,1-15.5,17,28.07,28.07,0,0,1-14.63,2.06,28.62,28.62,0,0,1-3.93-.75,29.14,29.14,0,0,1-3.85-1.4,31.8,31.8,0,0,1-3.7-1.93,30.94,30.94,0,0,1-3.4-2.57,26.63,26.63,0,0,1-5.62-6.66,29.78,29.78,0,0,1-3.36-8.33,30.1,30.1,0,0,1-.51-9,27,27,0,0,1,2.25-8.42,30.72,30.72,0,0,1,2-3.77,31.91,31.91,0,0,1,2.53-3.32,14.31,14.31,0,0,1,1.4-1.51c.5-.46,1-.95,1.48-1.39a27.74,27.74,0,0,1,3.23-2.36,28.18,28.18,0,0,1,14.12-4.37,28,28,0,0,1,21.28,8.8,26.19,26.19,0,0,1,4.59,6.61,20.54,20.54,0,0,1,1.16,2.71c.15.4.3.76.41,1.1s.17.66.24,1l.33,1.28A2.49,2.49,0,0,1,489.46,332.63Z" style="fill:#263238"></path><g style="opacity:0.30000000000000004"><path d="M489.31,333c-.16,0-.54-1.13-1.44-3.11a29.78,29.78,0,0,0-5-7.63,28.84,28.84,0,0,0-4.66-4.13,27.79,27.79,0,0,0-6.3-3.3,26.58,26.58,0,0,0-7.64-1.61,25.83,25.83,0,0,0-4.12.06A28.94,28.94,0,0,0,456,314a29.27,29.27,0,0,0-4,1.38,26.43,26.43,0,0,0-3.65,1.94,27,27,0,0,0-5.92,5.1,27.41,27.41,0,0,0-3.92,5.93,28.93,28.93,0,0,0-2.1,5.87,30,30,0,0,0-.67,9.08c.17,2.17.4,3.37.23,3.41s-.62-1.1-1-3.31a25.66,25.66,0,0,1,0-9.49,27.83,27.83,0,0,1,6-12.77,27.43,27.43,0,0,1,2.86-3,27.11,27.11,0,0,1,3.42-2.62,27.8,27.8,0,0,1,3.92-2.12,30,30,0,0,1,4.34-1.5,29.48,29.48,0,0,1,4.52-.78,27.59,27.59,0,0,1,4.45,0,26.83,26.83,0,0,1,4.26.64,26.17,26.17,0,0,1,3.94,1.22,28.34,28.34,0,0,1,6.63,3.7,28.68,28.68,0,0,1,4.77,4.58,26.13,26.13,0,0,1,4.6,8.31C489.32,331.7,489.43,332.94,489.31,333Z"></path></g><g style="opacity:0.30000000000000004"><path d="M469,354.21l1.13,4.72-4.21,1-1.1-4.58c-4.23.74-8.53.39-11.28-.87l1.09-5.68a17.49,17.49,0,0,0,8.87,1l-1.68-7c-4.94,0-10.53-.33-12-6.35-1.06-4.46,1.26-9.06,7.73-11.41l-1.12-4.67,4.21-1,1.1,4.59a19.57,19.57,0,0,1,9.15.52l-.86,5.68a17.89,17.89,0,0,0-7-.65l1.71,7.16c4.94,0,10.44.31,11.86,6.24C477.72,347.28,475.42,351.84,469,354.21Zm-8.65-17.59-1.43-6c-2.11,1-2.7,2.47-2.37,3.85S458.36,336.48,460.36,336.62ZM470,345c-.35-1.47-1.77-2-3.73-2.18l1.39,5.81C469.68,347.69,470.34,346.38,470,345Z"></path></g><path d="M419.11,314.76a40.52,40.52,0,0,1-53.95,19.32,41.26,41.26,0,0,1-6.17-3.59,40.49,40.49,0,1,1,60.12-15.73Z" style="fill:#1E81F6"></path><path d="M411.21,311.5a30.91,30.91,0,1,1-14.82-41.08A30.87,30.87,0,0,1,411.21,311.5Z" style="fill:#1E81F6"></path><path d="M410.38,310.64a4.49,4.49,0,0,1,.16-.47c.13-.34.31-.79.53-1.37l.4-1c.12-.37.23-.8.36-1.25a21.79,21.79,0,0,0,.76-3.15,29.24,29.24,0,0,0,.37-8.85,30.7,30.7,0,0,0-27.74-27.47,31.54,31.54,0,0,0-4.36-.12c-.73,0-1.46.15-2.2.22a15,15,0,0,0-2.21.36,27.58,27.58,0,0,0-8.62,3.11,29.38,29.38,0,0,0-7.55,5.74,30.14,30.14,0,0,0-8.22,17.44,29.47,29.47,0,0,0,.38,9.48,27.62,27.62,0,0,0,3.09,8.62,30.42,30.42,0,0,0,2.37,3.78,32.31,32.31,0,0,0,2.86,3.28,30.88,30.88,0,0,0,14,8.07,30.85,30.85,0,0,0,24.87-4.16,29.51,29.51,0,0,0,6.6-5.92,22.61,22.61,0,0,0,1.94-2.6c.27-.39.53-.74.73-1.07l.53-.95.72-1.28a3,3,0,0,1,.26-.43,2.92,2.92,0,0,1-.2.46c-.17.32-.39.76-.67,1.31l-.5,1c-.2.34-.45.7-.71,1.1a22,22,0,0,1-1.91,2.65,29.17,29.17,0,0,1-6.58,6.06,31.12,31.12,0,0,1-25.22,4.38A30.79,30.79,0,0,1,355,312.22a35.28,35.28,0,0,1-1.93-4.23,34.55,34.55,0,0,1-1.24-4.57,30.06,30.06,0,0,1-.39-9.67,30.85,30.85,0,0,1,8.4-17.82,30,30,0,0,1,7.71-5.85,34,34,0,0,1,4.31-2,36.33,36.33,0,0,1,4.49-1.2,15.73,15.73,0,0,1,2.25-.36c.76-.07,1.51-.18,2.25-.21a31.78,31.78,0,0,1,19.81,5.92,31.11,31.11,0,0,1,12.68,22.23,29.08,29.08,0,0,1-.48,8.94,21.48,21.48,0,0,1-.82,3.16c-.15.45-.26.87-.4,1.25s-.3.7-.43,1l-.59,1.35A1.93,1.93,0,0,1,410.38,310.64Z" style="fill:#263238"></path><g style="opacity:0.30000000000000004"><path d="M410,310.83c-.17-.07.29-1.35.85-3.7a32.84,32.84,0,0,0,.84-10.08,31.86,31.86,0,0,0-1.27-6.81,30.79,30.79,0,0,0-3.27-7.19,28.79,28.79,0,0,0-2.51-3.45,29.84,29.84,0,0,0-3.1-3.17,29.08,29.08,0,0,0-3.67-2.76,30,30,0,0,0-8.64-3.74,29.89,29.89,0,0,0-13.19-.35,31.12,31.12,0,0,0-7.49,2.53,32,32,0,0,0-5.84,3.73,33,33,0,0,0-6.78,7.51c-1.33,2-1.95,3.23-2.12,3.15s.21-1.39,1.33-3.62a29,29,0,0,1,6.5-8.31,31.18,31.18,0,0,1,6-4.2,31.54,31.54,0,0,1,7.93-2.92,30.13,30.13,0,0,1,4.53-.65,31.21,31.21,0,0,1,9.67.85,31.4,31.4,0,0,1,9.33,4,30.24,30.24,0,0,1,3.93,3,30.83,30.83,0,0,1,5.92,7.21,30.9,30.9,0,0,1,4.36,15,28.76,28.76,0,0,1-1.62,10.42C410.9,309.73,410.15,310.89,410,310.83Z"></path></g><g style="opacity:0.30000000000000004"><path d="M377.72,315.64l-2.23,4.9-4.37-2,2.16-4.77c-4.21-2.23-7.76-5.48-9.31-8.45l4.83-4.25a19.46,19.46,0,0,0,7.08,7l3.32-7.31c-4.32-3.39-9-7.47-6.18-13.74,2.11-4.64,7.29-7.09,14.56-4.74l2.21-4.86,4.38,2L392,284.16a21.61,21.61,0,0,1,7.68,6.7l-4.63,4.39a19.65,19.65,0,0,0-5.67-5.31L386,297.38c4.35,3.34,8.95,7.39,6.15,13.56C390.09,315.5,385,317.93,377.72,315.64Zm4.4-21.34,2.82-6.22c-2.56-.53-4.05.33-4.71,1.77S380.47,292.81,382.12,294.3Zm2.75,14c.69-1.53-.2-2.94-1.79-4.45l-2.74,6C382.75,310.37,384.23,309.67,384.87,308.27Z"></path></g></g><g id="freepik--Character--inject-112"><rect x="420.64" y="348.82" width="171.42" height="121.83" rx="7.87" style="fill:#455a64"></rect><rect x="531.83" y="398.55" width="71.03" height="28.85" rx="13.33" style="fill:#455a64"></rect><path d="M589.54,427.9H545.17a13.86,13.86,0,0,1-13.84-13.84v-2.18a13.85,13.85,0,0,1,13.84-13.83h44.37a13.85,13.85,0,0,1,13.83,13.83v2.18A13.86,13.86,0,0,1,589.54,427.9Zm-44.37-28.85a12.85,12.85,0,0,0-12.84,12.83v2.18a12.85,12.85,0,0,0,12.84,12.84h44.37a12.85,12.85,0,0,0,12.83-12.84v-2.18a12.85,12.85,0,0,0-12.83-12.83Z" style="fill:#263238"></path><circle cx="547.76" cy="412.97" r="10.25" transform="translate(-105.16 623.39) rotate(-54.88)" style="fill:#263238"></circle><path d="M535.27,128.32a37.31,37.31,0,0,0,11.92,28.2q2.65-7.72,5.33-15.44" style="fill:#263238"></path><path d="M575.44,97.61c-4.58-2.5-10.1-2.86-15.21-1.83a47.77,47.77,0,0,0-14.39,5.94,23.64,23.64,0,0,0-6.88,5.37c-3.32,4.18-6.6,11-6.92,16.37-.26,4.31,1.39,15.09,3.21,19,1.67,3.59,9.49,6.32,13.35,7.21L584,108.48A17.94,17.94,0,0,0,575.44,97.61Z" style="fill:#263238"></path><path d="M581.54,103.17l-8.49-1.52c4.64,11,5.9,36.33,8.56,48,3.13-4.55,10.4-18.38,10-23.88S591.63,102.23,581.54,103.17Z" style="fill:#263238"></path><path d="M586.4,121.19c-.55-8.48-6.2-18.88-14.65-18l-19.55,5a14.51,14.51,0,0,0-10.92,13.36c0,.32,0-.07,0,.17l4.37,50.64,14.68,29.13h0l13-24.57c0-4.13,0-13.4,0-13.38s10.84-1.82,13-16C587.39,140.56,587,130.61,586.4,121.19Z" style="fill:#ffbf9d"></path><path d="M580.34,132.79a1.81,1.81,0,0,1-1.74,1.84,1.75,1.75,0,0,1-1.88-1.63,1.83,1.83,0,0,1,1.75-1.84A1.75,1.75,0,0,1,580.34,132.79Z" style="fill:#263238"></path><path d="M584.28,126.73c-.23.24-1.6-.78-3.56-.77s-3.38,1-3.59.75.13-.53.75-1a4.94,4.94,0,0,1,2.87-.9,4.8,4.8,0,0,1,2.83.91C584.18,126.2,584.39,126.62,584.28,126.73Z" style="fill:#263238"></path><path d="M564,132.79a1.81,1.81,0,0,1-1.74,1.84,1.75,1.75,0,0,1-1.88-1.63,1.83,1.83,0,0,1,1.75-1.84A1.73,1.73,0,0,1,564,132.79Z" style="fill:#263238"></path><path d="M565.74,126.73c-.22.24-1.6-.78-3.55-.77s-3.38,1-3.59.75.12-.53.75-1a4.91,4.91,0,0,1,2.87-.9,4.8,4.8,0,0,1,2.83.91C565.65,126.2,565.85,126.62,565.74,126.73Z" style="fill:#263238"></path><path d="M571.84,142.06a12.69,12.69,0,0,1,3.17-.58c.5,0,1-.15,1-.49a2.53,2.53,0,0,0-.33-1.48c-.47-1.2-1-2.47-1.48-3.79-2.06-5.4-3.55-9.84-3.33-9.92S573,130,575,135.43c.49,1.33,1,2.6,1.42,3.81a2.91,2.91,0,0,1,.26,2,1.26,1.26,0,0,1-.82.73,3.53,3.53,0,0,1-.84.12A12.82,12.82,0,0,1,571.84,142.06Z" style="fill:#263238"></path><path d="M554.49,158.53s4.6,9.71,18.75,8.36v-3.33A35.52,35.52,0,0,1,554.49,158.53Z" style="fill:#ff9a6c"></path><path d="M565.13,119.68c-.19.53-2.14.28-4.43.56s-4.14.91-4.44.44c-.14-.23.18-.73.93-1.24a7.41,7.41,0,0,1,3.29-1.17,7.59,7.59,0,0,1,3.47.4C564.79,119,565.21,119.43,565.13,119.68Z" style="fill:#263238"></path><path d="M583.64,120.76c-.34.45-1.69,0-3.3,0s-3,.3-3.31-.16c-.13-.22.08-.67.68-1.09a4.8,4.8,0,0,1,5.32.15C583.6,120.09,583.79,120.54,583.64,120.76Z" style="fill:#263238"></path><path d="M582.56,108.28a6.24,6.24,0,0,0-5.5-3.53,12.14,12.14,0,0,0-6.52,1.91c-8.42,4.86-12.75,16.62-21.07,21.66-2.05,1.24-4.71.1-6.45,1.74s-2.87,4.27-1.91,6.46a20,20,0,0,1-2.89-4.89,6.69,6.69,0,0,1,.24-5.51c.72-1.25,2-2.2,2.34-3.6.31-1.23-.18-2.51-.13-3.78a8.29,8.29,0,0,1,1.3-3.61c3.26-5.76,7.74-11,13.52-14.22A24,24,0,0,1,567.9,97.7a18.3,18.3,0,0,1,11.8,4.69c1.87,1.74,3.82,3.53,2.86,5.89" style="fill:#263238"></path><path d="M543.22,131.82c-.15-.41-7.52-3.07-7.62,4.77-.1,7.61,7.59,6.12,7.61,5.9S543.22,131.82,543.22,131.82Z" style="fill:#ffbf9d"></path><path d="M540.88,139.58s-.13.09-.36.19a1.28,1.28,0,0,1-1,0c-.8-.3-1.47-1.58-1.49-3a4.4,4.4,0,0,1,.39-1.89,1.53,1.53,0,0,1,1-1,.67.67,0,0,1,.78.37c.1.21,0,.36.09.38s.16-.13.1-.44a.78.78,0,0,0-.29-.48,1,1,0,0,0-.73-.2,1.85,1.85,0,0,0-1.4,1.16,4.42,4.42,0,0,0-.48,2.12c0,1.54.81,3,1.9,3.31a1.43,1.43,0,0,0,1.22-.19C540.87,139.76,540.91,139.59,540.88,139.58Z" style="fill:#ff9a6c"></path><path d="M540.19,127.9a2.6,2.6,0,0,0,.46-.26c.29-.18.74-.43,1.28-.81a26.52,26.52,0,0,0,4.11-3.74,72.87,72.87,0,0,0,5-6.53,59.94,59.94,0,0,1,6.29-7.83,23.78,23.78,0,0,1,4-3.21,20,20,0,0,1,4.38-2,21.56,21.56,0,0,1,8.07-1,21.1,21.1,0,0,1,5.41,1c.62.19,1.09.41,1.41.53a3.09,3.09,0,0,0,.5.17l-.47-.24a13.85,13.85,0,0,0-1.4-.58,19.83,19.83,0,0,0-5.43-1.18,21.6,21.6,0,0,0-8.18.93,19.55,19.55,0,0,0-4.46,2,24.68,24.68,0,0,0-4.13,3.25,57.7,57.7,0,0,0-6.3,7.89,80.56,80.56,0,0,1-4.95,6.56,28.71,28.71,0,0,1-4,3.79c-.52.4-1,.66-1.24.86A3.86,3.86,0,0,0,540.19,127.9Z" style="fill:#455a64"></path><path d="M542.11,130.06c-.12,2.08-.22,4.27.74,6.12s3.39,3.11,5.2,2.07c1.47-.84,1.91-2.73,2.16-4.41.73-4.85,1.06-9.76,1.82-14.6Z" style="fill:#263238"></path><path d="M580.68,104.65s-.67-.12-1.89-.16a12.76,12.76,0,0,0-5,.92,16.63,16.63,0,0,0-3.16,1.62,34.08,34.08,0,0,0-3.26,2.49A39.34,39.34,0,0,0,561,116.4c-1,1.36-1.82,2.75-2.75,4a19.5,19.5,0,0,1-3.05,3.43,34.71,34.71,0,0,1-6.44,4.31c-2,1-3.58,1.75-4.7,2.25l-1.3.55a2.74,2.74,0,0,1-.47.17s.14-.1.43-.25l1.27-.63c1.1-.54,2.71-1.3,4.63-2.36a35.34,35.34,0,0,0,6.32-4.34,18.82,18.82,0,0,0,3-3.38c.91-1.28,1.77-2.68,2.75-4a38,38,0,0,1,6.47-6.93,31.75,31.75,0,0,1,3.32-2.48,16.6,16.6,0,0,1,3.24-1.62,12.72,12.72,0,0,1,5.16-.8,8.25,8.25,0,0,1,1.41.2A2.18,2.18,0,0,1,580.68,104.65Z" style="fill:#455a64"></path><path d="M541.9,125.35a4.09,4.09,0,0,1-.68.46l-1.93,1.13-.65.37a2.15,2.15,0,0,1-.83.28.8.8,0,0,1-.51-.12A.68.68,0,0,1,537,127a1.67,1.67,0,0,1,.36-1l2.24-3.59.3.29a7.82,7.82,0,0,1-2.45,1.22,8,8,0,0,1-2.72.32,2.38,2.38,0,0,1-.69-.12.89.89,0,0,1-.59-.52.83.83,0,0,1,.12-.77,3.37,3.37,0,0,1,.44-.47,16.19,16.19,0,0,0,2.59-3.27,27.79,27.79,0,0,0,1.65-3.51,4.29,4.29,0,0,1-.24,1,14.31,14.31,0,0,1-1.15,2.64,15.27,15.27,0,0,1-2.58,3.4c-.28.27-.56.58-.45.82s.52.36.92.36a7.65,7.65,0,0,0,4.9-1.46l.91-.67-.61,1-2.28,3.56a1.38,1.38,0,0,0-.32.74c0,.22.19.34.43.32a3.82,3.82,0,0,0,1.37-.56l2-1A3.08,3.08,0,0,1,541.9,125.35Z" style="fill:#455a64"></path><path d="M570.15,145.76a3.43,3.43,0,0,0-3.07-1.14,3.11,3.11,0,0,0-2.1,1.19,1.91,1.91,0,0,0-.08,2.21,2.34,2.34,0,0,0,2.49.54,7.21,7.21,0,0,0,2.35-1.49,2,2,0,0,0,.52-.56.62.62,0,0,0,0-.69" style="fill:#ff9a6c"></path><path d="M565.32,142.74c.31,0,.37,2,2.16,3.34s4,1.09,4,1.37c0,.12-.47.4-1.39.45a5.08,5.08,0,0,1-3.31-1,4.33,4.33,0,0,1-1.69-2.81C565,143.23,565.18,142.73,565.32,142.74Z" style="fill:#263238"></path><polygon points="593.73 278.09 601.92 296.59 562.17 311.46 553.28 291.57 593.73 278.09" style="fill:#263238"></polygon><path d="M674.05,390.66l10.87,23.47s27.15-3.6,29.58.55l-44.38,23.13-18.45-35.87Z" style="fill:#455a64"></path><path d="M670.44,419.14a2.07,2.07,0,0,0-.2,2.75,2,2,0,0,0,2.72.23,2.18,2.18,0,0,0,.2-2.91,2.07,2.07,0,0,0-2.86.07" style="fill:#e0e0e0"></path><path d="M670.11,437.81,668.65,435l43.53-21.59a3.82,3.82,0,0,1,2.67,1.44Z" style="fill:#263238"></path><path d="M685.41,414.07c.1.22-.95.88-1.67,2.13s-.83,2.48-1.08,2.5-.57-1.43.34-2.93S685.35,413.84,685.41,414.07Z" style="fill:#263238"></path><path d="M691.12,413.62c.16.19-.6,1.05-.87,2.36s0,2.4-.22,2.5-1-1.07-.62-2.69S691,413.41,691.12,413.62Z" style="fill:#263238"></path><path d="M696.68,417.92c-.17.14-1-.8-1.09-2.29s.74-2.5.93-2.36-.12,1.1-.07,2.33S696.89,417.78,696.68,417.92Z" style="fill:#263238"></path><path d="M682.31,409c0,.24-1.15.45-2.35,1.17s-2,1.6-2.19,1.47.33-1.39,1.75-2.21S682.33,408.73,682.31,409Z" style="fill:#263238"></path><path d="M680.59,403.58c0,.09-.75.67-2.26,1.14a11.19,11.19,0,0,1-2.73.47,11.35,11.35,0,0,1-1.64,0,3.34,3.34,0,0,1-1-.18,1.07,1.07,0,0,1-.7-1.12,1.36,1.36,0,0,1,.71-1,3.22,3.22,0,0,1,.9-.31,9.9,9.9,0,0,1,1.65-.23,9,9,0,0,1,2.78.31c1.53.44,2.31,1.08,2.25,1.16s-.92-.31-2.39-.57a10.18,10.18,0,0,0-2.59-.11,9.14,9.14,0,0,0-1.49.26c-.55.11-1,.32-1,.59,0,.11,0,.14.18.23a2.5,2.5,0,0,0,.7.13,13.59,13.59,0,0,0,1.54.08,14.64,14.64,0,0,0,2.6-.27A17.79,17.79,0,0,1,680.59,403.58Z" style="fill:#263238"></path><path d="M631.82,428.37l-1.38,25.83s25.67,9.53,25.88,14.33l-50.05-.33.49-40.33Z" style="fill:#455a64"></path><path d="M615.3,451.86a2.05,2.05,0,0,0-1.47,2.33,2,2,0,0,0,2.3,1.47,2.18,2.18,0,0,0,1.54-2.48,2.05,2.05,0,0,0-2.56-1.26" style="fill:#e0e0e0"></path><path d="M606.27,468.2l0-3.21,48.57,1.29a3.83,3.83,0,0,1,1.69,2.52Z" style="fill:#263238"></path><path d="M630.89,454.37c0,.25-1.24.34-2.47,1.11s-1.89,1.8-2.12,1.7.17-1.52,1.67-2.43S631,454.15,630.89,454.37Z" style="fill:#263238"></path><path d="M636.16,456.65c.05.25-1,.65-1.88,1.68s-1.12,2.12-1.37,2.11-.37-1.41.71-2.67S636.16,456.42,636.16,456.65Z" style="fill:#263238"></path><path d="M639.06,463.05c-.23.05-.55-1.19.11-2.53s1.82-1.86,1.92-1.65-.63.92-1.15,2S639.3,463,639.06,463.05Z" style="fill:#263238"></path><path d="M630.55,448.41c-.11.22-1.23-.14-2.63-.07s-2.49.49-2.61.28.93-1.08,2.58-1.14S630.68,448.22,630.55,448.41Z" style="fill:#263238"></path><path d="M631.55,442.86a4.86,4.86,0,0,1-2.53-.06,11.51,11.51,0,0,1-2.64-.86,12.26,12.26,0,0,1-1.44-.8,3,3,0,0,1-.75-.61,1.07,1.07,0,0,1-.09-1.31,1.38,1.38,0,0,1,1.09-.55,3.71,3.71,0,0,1,.95.15A9.06,9.06,0,0,1,630,441c1.15,1.11,1.54,2,1.45,2.08s-.67-.7-1.85-1.62a10.25,10.25,0,0,0-2.23-1.31,8.8,8.8,0,0,0-1.45-.47c-.53-.15-1-.16-1.13.07s-.06.13.05.29a2.8,2.8,0,0,0,.56.44,14.36,14.36,0,0,0,1.32.79,14.87,14.87,0,0,0,2.43,1A16.77,16.77,0,0,1,631.55,442.86Z" style="fill:#263238"></path><path d="M517.35,304.37s100.29-12.56,106.2-12.56c13.87,0,22.58,10.57,24.65,18.73,1.53,6,32.4,93.25,32.4,93.25l-22.77,11.8-33.49-59.51-17.07-29.69-88,13.59Z" style="fill:#263238"></path><path d="M611.41,323.65s13.75,0,21.17,11c4.36,6.47,2.83,18,2.92,26.73.12,11.87-2.75,84.19-2.75,84.19l-28.11.47-5.89-75.37.34-13.93L543,352.16s-5.11-17,7.46-30.44C552,320,611.41,323.65,611.41,323.65Z" style="fill:#263238"></path><path d="M525.92,280.12s-22.17,34.12-8.57,59.76c6.48,12.21,25.87,12.2,25.87,12.2l19.89-24.9V286Z" style="fill:#263238"></path><path d="M543.22,352.08a2.5,2.5,0,0,1,.38-.2l1.12-.52,4.32-2,16-7.11,23.69-10.47,14-6.17c1.23-.51,2.41-1.12,3.71-1.56a23.7,23.7,0,0,1,4-1,30.14,30.14,0,0,1,8.38-.07,26.79,26.79,0,0,1,8.07,2.28,14.78,14.78,0,0,1,3.46,2.27,13,13,0,0,1,2.55,3.19,18.12,18.12,0,0,1,2.35,7.51c.11,1.3,0,2.55,0,3.8s0,2.48,0,3.7c-.12,9.75-.22,18.52-.3,25.9s-.19,13.31-.25,17.46c0,2-.07,3.63-.09,4.75,0,.52,0,.93,0,1.23a2.7,2.7,0,0,1,0,.42,3.33,3.33,0,0,1,0-.42c0-.3,0-.71,0-1.23,0-1.12,0-2.71,0-4.75,0-4.15,0-10.11.07-17.46s.11-16.16.18-25.9c0-1.22,0-2.45,0-3.7s.06-2.52-.05-3.76a17.43,17.43,0,0,0-2.29-7.27,12.41,12.41,0,0,0-2.44-3.06,13.9,13.9,0,0,0-3.34-2.17,26.32,26.32,0,0,0-7.89-2.24,29.75,29.75,0,0,0-8.22.07,23.21,23.21,0,0,0-3.9,1c-1.25.43-2.46,1-3.68,1.55l-14,6.14-23.73,10.36-16,6.94-4.37,1.86-1.14.47A1.9,1.9,0,0,1,543.22,352.08Z" style="fill:#455a64"></path><line x1="527.41" y1="301.88" x2="621.57" y2="291.81" style="fill:#455a64"></line><path d="M621.57,291.81c0,.14-21.05,2.51-47.05,5.29s-47.09,4.92-47.11,4.78,21.05-2.51,47.05-5.29S621.55,291.67,621.57,291.81Z" style="fill:#455a64"></path><path d="M596.78,242.1c1.63-5.19,7.33-24.29,6.05-34.36-1-8-8.23-18.34-10.38-23.84-1-2.59-9.11-5.26-13.94-6.69l-4.8-5.67-.4,2.77A13.84,13.84,0,0,1,561.85,179c-7.13-.64-13-3.55-16.87-7.85-18.52,5.65-18.46,6.91-22,8.32-4.58,1.82,9.12,45.71,9.12,45.71s4.91,27.57.29,36.86c-2.6,5.23-5.61,11.2-7.82,16.06,0,0-6.16,11.74-4.84,11.44,2.77-.64,22,4,40.07,5,33.41,1.76,39.8-3.19,39.8-3.19-1.75-8.55-4.68-38.52-4.67-44.34C594.91,246,596.49,243,596.78,242.1Z" style="fill:#1E81F6"></path><path d="M574.3,172.91s21.77,5.61,23.9,8.51c5.79,7.87,40.67,61.72,23.55,77.78-11.22,10.52-27-11.68-27-11.68Z" style="fill:#1E81F6"></path><path d="M619.66,236.33a9.63,9.63,0,0,1-1.53-.26l-4.17-.86c-3.55-.72-8.52-1.74-14.22-2.56l.3-.17-1.71,4.22-4.06,9.91,0-.25,6.3,7.56,1.75,2.16a5.3,5.3,0,0,1,.58.8s1.61.74-.7-.7l-1.87-2.07-6.46-7.43-.1-.12.06-.13,4-9.94c.59-1.44,1.17-2.85,1.72-4.21l.08-.2.23,0c5.73.85,10.69,1.93,14.22,2.75,1.77.41,3.17.76,4.14,1A10.41,10.41,0,0,1,619.66,236.33Z" style="fill:#263238"></path><path d="M598.72,233.8a10.38,10.38,0,0,1,.16-1.77c.16-1.22.36-2.84.61-4.79a73.35,73.35,0,0,0,.53-15.82,42.53,42.53,0,0,0-4.5-15.13c-.91-1.82-1.74-3.26-2.32-4.25a12.63,12.63,0,0,1-.87-1.56s.12.12.3.36.44.61.76,1.09c.64,1,1.52,2.37,2.49,4.19a40.55,40.55,0,0,1,4.7,15.25,66.94,66.94,0,0,1-.7,15.92c-.29,2-.58,3.65-.78,4.77A11.24,11.24,0,0,1,598.72,233.8Z" style="fill:#263238"></path><g style="opacity:0.30000000000000004"><path d="M527.41,274l41.21-19-2.79-8.15,6.34-2.42,10.33,1.35A16.78,16.78,0,0,0,596.57,241h0l-25.67-6.49-29.28,6.24-7.44-21.57-1.84,6.32,1.53,13.57,1,14.66Z"></path></g><path d="M523.48,179.25a18.8,18.8,0,0,0-10.54,12.08,48.4,48.4,0,0,0-3.2,9.84c-3.47,15.3-11,44-11.28,51.66-.54,13.78,10.42,17.69,16.34,18.89s47-20.06,47-20.06l-8.54-23.21-25.11,10.39s5.73-17.7,7.39-24.94S523.48,179.25,523.48,179.25Z" style="fill:#1E81F6"></path><path d="M599.89,229.92a19,19,0,0,1-.23-6.92,12.37,12.37,0,0,0,.15-4.2c-.26-1.37-1.54-2.82-2.93-2.71l-2.1,10.09Z" style="fill:#ffbf9d"></path><path d="M598.92,206.24l-7.39,35.66L574,240.84l5.19-35.28a1.89,1.89,0,0,1,1.88-1.61l16,0A1.89,1.89,0,0,1,598.92,206.24Z" style="fill:#263238"></path><path d="M579.21,215.51a5.72,5.72,0,0,0,.27-1c.15-.75.35-1.72.59-2.89l.83-4.28c0-.2.07-.42.12-.58a1.17,1.17,0,0,1,.31-.45,1,1,0,0,1,.5-.26,4,4,0,0,1,.62,0h2.77c3.79,0,7.23-.06,9.71-.1l3-.08a5,5,0,0,0,1.08-.08,7.88,7.88,0,0,0-1.08-.06l-3,0c-2.48,0-5.92,0-9.71,0h-2.77a3.49,3.49,0,0,0-.7,0,1.44,1.44,0,0,0-.65.33,1.51,1.51,0,0,0-.4.6,6.24,6.24,0,0,0-.14.64c-.28,1.6-.53,3.05-.75,4.3l-.47,2.9A6.39,6.39,0,0,0,579.21,215.51Z" style="fill:#455a64"></path><path d="M588.58,207.73a.86.86,0,0,1,1-.52.85.85,0,0,1,.62.69,1,1,0,0,1-.48.89.89.89,0,0,1-1-.09A.81.81,0,0,1,588.58,207.73Z" style="fill:#fafafa"></path><path d="M589.06,218.49c.41.1,9.68,4.89,9.68,4.89l4.84,5.1s1.75,3,.33,7.56-3.73,6.23-9.06,7.55L584.78,242l-5.1-4.18a3.18,3.18,0,0,1-1-3.41l.07-.21-.58-1a1.76,1.76,0,0,1,.09-1.94h0a1.76,1.76,0,0,1,2.45-.38l5.74,4.2,3.95.52.59-1.29-5.79-3-7.36-5.7a2.16,2.16,0,0,1-.33-3.11h0a2.16,2.16,0,0,1,2.75-.46l6.84,4,7.14,3.15-1.13-2.84-8.39-6.21S584,217.21,589.06,218.49Z" style="fill:#ffbf9d"></path><path d="M588.22,213.6s-1.93-1.11-5.14.22-7.31,3.34-7.31,3.34l-6.15,1.75.73-1.52s6.07.62,5.78-3.8l-3.66.16-3.14-1.61-6.19,6-2.33,8.51L554,230.19l5.35,14.56,9.61-5.33,12-.23,4.41-3.57.49-4.53,4.32-4.4s.54-2.2-1.45-2.41-6.78,4.55-6.78,4.55l-4.81.11s-.82-.75-.15-1.18,14.84-7.39,15.47-8.95,1.28-2.58-.13-3a7.78,7.78,0,0,0-3.75.36S589.29,213.94,588.22,213.6Z" style="fill:#ffbf9d"></path><path d="M576.47,222.3a67.14,67.14,0,0,0,6.31-3,66,66,0,0,0,6.15-3.27,65.81,65.81,0,0,0-6.31,2.95A64.47,64.47,0,0,0,576.47,222.3Z" style="fill:#ff9a6c"></path><path d="M573.61,233.61a2.89,2.89,0,0,0,.72.23c.47.12,1.16.3,2,.45a13.66,13.66,0,0,0,3.07.21,8.88,8.88,0,0,0,3.64-1,16,16,0,0,0,5.1-4.51c.53-.69.94-1.26,1.21-1.66a3.23,3.23,0,0,0,.4-.65,25.2,25.2,0,0,0-1.82,2.15,17.13,17.13,0,0,1-5.05,4.35,8.92,8.92,0,0,1-3.5,1,14.25,14.25,0,0,1-3-.13C574.68,233.78,573.62,233.55,573.61,233.61Z" style="fill:#ff9a6c"></path><path d="M554,230.19l.43-.25,1.3-.71,5-2.66-.06.07,2.28-8.53,0,0,0,0,6.16-6,.1-.1.12.07,3.15,1.6-.1,0,3.66-.17h.22v.21a3.73,3.73,0,0,1-.39,2A3.51,3.51,0,0,1,574.4,217a8.24,8.24,0,0,1-4.12.64l.23-.13-.72,1.53-.28-.33,6.15-1.77,0,0,6-2.73c1.92-1,4.39-1.88,6.74-.84l0,0a1.09,1.09,0,0,1,.63.6,1.93,1.93,0,0,1,.15.78,5.13,5.13,0,0,1-.21,1.5l-.33-.32a11.37,11.37,0,0,1,2.19-.47,3.44,3.44,0,0,1,2.35.42,1,1,0,0,1,.38.63,1.85,1.85,0,0,1,0,.67,9.07,9.07,0,0,1-.4,1.11l-.22.53a2.31,2.31,0,0,1-.16.3,2.8,2.8,0,0,1-.22.25,9,9,0,0,1-.93.75,89.6,89.6,0,0,1-7.86,4.52l-3.91,2c-.64.34-1.28.66-1.92,1-.29.16-.72.34-.76.47s.11.45.32.65l-.18-.07,4.81-.11-.17.07a29.81,29.81,0,0,1,4.62-3.76,7.43,7.43,0,0,1,1.32-.67,2.32,2.32,0,0,1,1.54-.07,1.67,1.67,0,0,1,1.11,1.1,3.05,3.05,0,0,1,0,1.5v.06l0,0L586,231.24l.06-.13c-.17,1.56-.34,3.07-.5,4.54v.08l-.06.05-4.43,3.55-.05,0H581l-12.05.19.07,0-7.15,3.89-1.88,1-.48.25c-.11.06-.17.08-.17.07l.15-.1.47-.28,1.84-1.06,7.09-4h.06l12-.28-.11,0,4.4-3.58-.08.14q.24-2.19.48-4.53V231l.05-.05,4.31-4.41-.06.11c.18-.81,0-1.83-.84-2a3.17,3.17,0,0,0-2.47.7,28.94,28.94,0,0,0-4.52,3.7l-.07.07H582l-4.8.13h-.11l-.07-.07a2,2,0,0,1-.38-.49.87.87,0,0,1-.06-.73,1.07,1.07,0,0,1,.51-.47l.48-.25,1.92-1,3.9-2a88.73,88.73,0,0,0,7.8-4.5A7.42,7.42,0,0,0,592,219a1.29,1.29,0,0,0,.16-.18.73.73,0,0,0,.1-.2l.23-.53c.26-.66.66-1.5.21-1.8a3,3,0,0,0-2-.31,10.25,10.25,0,0,0-2.08.44l-.46.15.13-.47a4.77,4.77,0,0,0,.19-1.34c0-.44-.15-.82-.43-.9h0l0,0a5.4,5.4,0,0,0-3.19-.28,12.26,12.26,0,0,0-3.09,1.14l-5.93,2.7h0l-6.16,1.75-.5.14.23-.47.73-1.52.06-.14h.17a7.86,7.86,0,0,0,3.87-.58,3.11,3.11,0,0,0,1.33-1.23,3.36,3.36,0,0,0,.34-1.74l.23.2-3.66.15h-.06l0,0-3.14-1.63.23,0-6.2,6,0-.07c-.93,3.32-1.73,6.19-2.38,8.5v.05l0,0-5.08,2.57-1.32.65Z" style="fill:#ff9a6c"></path><path d="M528.16,267.71a4.57,4.57,0,0,1,.63-.34l1.85-.92,7-3.34,24.11-11.4-.13.31c-1.56-4.26-3.24-8.87-5-13.64-1.22-3.38-2.42-6.67-3.57-9.85l.34.15L528.82,239h-.05a22.56,22.56,0,0,0-5.89,1.32,11,11,0,0,0-3.82,2.39,7.17,7.17,0,0,0-1.62,2.35c-.12.3-.19.54-.24.7a1,1,0,0,1-.07.25.64.64,0,0,1,0-.26,5,5,0,0,1,.2-.73,7.1,7.1,0,0,1,1.56-2.45,11.28,11.28,0,0,1,3.86-2.52,22.28,22.28,0,0,1,6-1.41l-.06,0,24.5-10.45.25-.1.09.25c1.16,3.18,2.36,6.47,3.58,9.84,1.74,4.77,3.41,9.39,5,13.65l.08.22-.21.1-24.18,11.22-7,3.22-1.89.84A6.6,6.6,0,0,1,528.16,267.71Z" style="fill:#263238"></path><path d="M536.54,204a32.14,32.14,0,0,1-1.63-2.94c-1-1.83-2.42-4.3-4.19-6.92s-3.54-4.86-4.87-6.46a30.66,30.66,0,0,1-2.12-2.6s.27.18.69.59,1,1,1.71,1.77a59,59,0,0,1,9.11,13.45c.45.93.8,1.7,1,2.25A3,3,0,0,1,536.54,204Z" style="fill:#263238"></path><path d="M537.53,208.9a5.32,5.32,0,0,1-.28,1.27c-.22.8-.55,2-1,3.37-.85,2.85-2.06,6.77-3.44,11.08s-2.7,8.2-3.69,11c-.5,1.39-.91,2.52-1.22,3.3a5.62,5.62,0,0,1-.52,1.18,7,7,0,0,1,.33-1.25c.28-.89.64-2,1.06-3.35.94-2.93,2.17-6.78,3.54-11s2.64-8.1,3.59-11l1.13-3.32A6.57,6.57,0,0,1,537.53,208.9Z" style="fill:#263238"></path></g></svg>