<?xml version="1.0" encoding="utf-8"?>
<svg viewBox="58.278 122.144 666.849 374.663" width="666.849" height="374.663" xmlns="http://www.w3.org/2000/svg" xmlns:xlink="http://www.w3.org/1999/xlink">
  <defs>
    <clipPath id="clippath">
      <rect class="cls-41" width="661.59" height="372.13" rx="10.98" ry="10.98" style="fill: none;"/>
    </clipPath>
    <linearGradient id="_Безымянный_градиент_62" data-name="Безымянный градиент 62" x1="345.54" y1="164.32" x2="347.07" y2="229.79" gradientUnits="userSpaceOnUse">
      <stop offset="0" stop-color="#c1e0ba"/>
      <stop offset="1" stop-color="#39a1a2"/>
    </linearGradient>
    <linearGradient id="_Безымянный_градиент_62-2" data-name="Безымянный градиент 62" x1="2389.78" y1="407.35" x2="2389.78" y2="512.45" gradientTransform="translate(-1308.92 2047.86) rotate(-58.94)" xlink:href="#_Безымянный_градиент_62"/>
    <linearGradient id="_Безымянный_градиент_62-3" data-name="Безымянный градиент 62" x1="1963.28" y1="164.32" x2="1964.82" y2="229.79" gradientTransform="translate(2514.04) rotate(-180) scale(1 -1)" xlink:href="#_Безымянный_градиент_62"/>
    <linearGradient id="_Безымянный_градиент_62-4" data-name="Безымянный градиент 62" x1="3224.52" y1="1793.08" x2="3224.52" y2="1898.18" gradientTransform="translate(3822.96 2047.86) rotate(-121.06) scale(1 -1)" xlink:href="#_Безымянный_градиент_62"/>
    <linearGradient id="_Безымянный_градиент_30" data-name="Безымянный градиент 30" x1="471.26" y1="194.66" x2="546.69" y2="194.66" gradientUnits="userSpaceOnUse">
      <stop offset="0" stop-color="#2c3e63"/>
      <stop offset="1" stop-color="#13192e"/>
    </linearGradient>
    <clipPath id="clippath-1">
      <path class="cls-41" d="m440.32,159.95h137.31c.64,0,1.16.52,1.16,1.16v67.11c0,.64-.52,1.16-1.16,1.16h-137.31c-.64,0-1.16-.52-1.16-1.16v-67.11c0-.64.52-1.16,1.16-1.16Z" transform="translate(703.63 -314.31) rotate(90)" style="fill: none;"/>
    </clipPath>
    <linearGradient id="_Безымянный_градиент_30-2" data-name="Безымянный градиент 30" x1="506.76" y1="128.9" x2="511.19" y2="128.9" xlink:href="#_Безымянный_градиент_30"/>
    <linearGradient id="_Безымянный_градиент_59" data-name="Безымянный градиент 59" x1="508.97" y1="127.19" x2="508.97" y2="130.54" gradientUnits="userSpaceOnUse">
      <stop offset="0" stop-color="#2c3e63"/>
      <stop offset="1" stop-color="#000"/>
    </linearGradient>
    <pattern id="pattern-0-0" patternTransform="matrix(1, 0, 0, 1, 501.84996, 153.624992)" xlink:href="#pattern-0"/>
    <pattern x="0" y="0" width="25" height="25" patternUnits="userSpaceOnUse" viewBox="0 0 100 100" id="pattern-0">
      <rect x="0" y="0" width="50" height="100" style="fill: black;"/>
    </pattern>
    <linearGradient id="_Безымянный_градиент_30-3" data-name="Безымянный градиент 30" x1="417.14" y1="257.87" x2="417.14" y2="250.93" xlink:href="#_Безымянный_градиент_30"/>
    <linearGradient id="_Безымянный_градиент_30-4" data-name="Безымянный градиент 30" x1="356.66" y1="267.27" x2="356.66" y2="251.59" xlink:href="#_Безымянный_градиент_30"/>
    <linearGradient id="_Безымянный_градиент_30-5" data-name="Безымянный градиент 30" x1="1330.71" y1="267.27" x2="1330.71" y2="251.59" gradientTransform="translate(-850.15 510.93) scale(1 -1)" xlink:href="#_Безымянный_градиент_30"/>
    <linearGradient id="_Безымянный_градиент_30-6" data-name="Безымянный градиент 30" x1="452.09" y1="166.38" x2="382.45" y2="208.69" xlink:href="#_Безымянный_градиент_30"/>
    <linearGradient id="_Безымянный_градиент_30-7" data-name="Безымянный градиент 30" x1="418.8" y1="248.71" x2="418.56" y2="224.19" xlink:href="#_Безымянный_градиент_30"/>
    <linearGradient id="_Безымянный_градиент_30-8" data-name="Безымянный градиент 30" x1="355.1" y1="250" x2="355.03" y2="242.32" xlink:href="#_Безымянный_градиент_30"/>
    <linearGradient id="_Безымянный_градиент_41" data-name="Безымянный градиент 41" x1="355.09" y1="248.47" x2="355.04" y2="243.48" gradientUnits="userSpaceOnUse">
      <stop offset="0" stop-color="#ebeff7"/>
      <stop offset="1" stop-color="#b3b6c2"/>
    </linearGradient>
    <linearGradient id="_Безымянный_градиент_30-9" data-name="Безымянный градиент 30" x1="1330.14" y1="250" x2="1330.06" y2="242.32" gradientTransform="translate(1812.26) rotate(-180) scale(1 -1)" xlink:href="#_Безымянный_градиент_30"/>
    <linearGradient id="_Безымянный_градиент_41-2" data-name="Безымянный градиент 41" x1="1330.12" y1="248.47" x2="1330.07" y2="243.48" gradientTransform="translate(1812.26) rotate(-180) scale(1 -1)" xlink:href="#_Безымянный_градиент_41"/>
    <linearGradient id="_Безымянный_градиент_41-3" data-name="Безымянный градиент 41" x1="363.78" y1="226.63" x2="363.64" y2="212.49" xlink:href="#_Безымянный_градиент_41"/>
    <radialGradient id="_Безымянный_градиент_42" data-name="Безымянный градиент 42" cx="355.77" cy="218.16" r="4.47" gradientUnits="userSpaceOnUse">
      <stop offset="0" stop-color="#ebeff7"/>
      <stop offset="1" stop-color="#b3b6c2"/>
    </radialGradient>
    <radialGradient id="_Безымянный_градиент_42-2" data-name="Безымянный градиент 42" cx="365.96" cy="220.62" r="3.73" xlink:href="#_Безымянный_градиент_42"/>
    <linearGradient id="_Безымянный_градиент_41-4" data-name="Безымянный градиент 41" x1="1337.83" y1="226.63" x2="1337.69" y2="212.49" gradientTransform="translate(1811.28) rotate(-180) scale(1 -1)" xlink:href="#_Безымянный_градиент_41"/>
    <radialGradient id="_Безымянный_градиент_42-3" data-name="Безымянный градиент 42" cx="1329.82" gradientTransform="translate(1811.28) rotate(-180) scale(1 -1)" xlink:href="#_Безымянный_градиент_42"/>
    <radialGradient id="_Безымянный_градиент_42-4" data-name="Безымянный градиент 42" cx="1340.01" cy="220.62" r="3.73" gradientTransform="translate(1811.28) rotate(-180) scale(1 -1)" xlink:href="#_Безымянный_градиент_42"/>
    <linearGradient id="_Безымянный_градиент_41-5" data-name="Безымянный градиент 41" x1="439.38" y1="229.4" x2="385.66" y2="260.38" xlink:href="#_Безымянный_градиент_41"/>
    <linearGradient id="_Безымянный_градиент_41-6" data-name="Безымянный градиент 41" x1="418.62" y1="225.17" x2="418.62" y2="228.28" xlink:href="#_Безымянный_градиент_41"/>
    <linearGradient id="_Безымянный_градиент_30-10" data-name="Безымянный градиент 30" x1="439.24" y1="191.53" x2="439.42" y2="173.92" xlink:href="#_Безымянный_градиент_30"/>
    <linearGradient id="_Безымянный_градиент_59-2" data-name="Безымянный градиент 59" x1="418.65" y1="219.74" x2="418.84" y2="200.05" xlink:href="#_Безымянный_градиент_59"/>
    <linearGradient id="_Безымянный_градиент_59-3" data-name="Безымянный градиент 59" x1="485.2" y1="187.79" x2="485.2" y2="193.72" xlink:href="#_Безымянный_градиент_59"/>
    <linearGradient id="_Безымянный_градиент_59-4" data-name="Безымянный градиент 59" x1="352.11" y1="187.79" x2="352.11" y2="193.72" xlink:href="#_Безымянный_градиент_59"/>
    <radialGradient id="_Безымянный_градиент_18" data-name="Безымянный градиент 18" cx="365.96" cy="220.62" r="27.55" gradientUnits="userSpaceOnUse">
      <stop offset="0" stop-color="#f7e3bc"/>
      <stop offset="0.13" stop-color="#c6b697"/>
      <stop offset="0.3" stop-color="#8a7f69"/>
      <stop offset="0.47" stop-color="#595243"/>
      <stop offset="0.63" stop-color="#322e26"/>
      <stop offset="0.78" stop-color="#161411"/>
      <stop offset="0.9" stop-color="#050504"/>
      <stop offset="1" stop-color="#000"/>
    </radialGradient>
    <radialGradient id="_Безымянный_градиент_18-2" data-name="Безымянный градиент 18" cx="365.96" cy="220.62" r="15.61" gradientTransform="translate(495.95 -186.44) rotate(76.63)" xlink:href="#_Безымянный_градиент_18"/>
    <radialGradient id="_Безымянный_градиент_18-3" data-name="Безымянный градиент 18" cx="471.26" xlink:href="#_Безымянный_градиент_18"/>
    <radialGradient id="_Безымянный_градиент_18-4" data-name="Безымянный градиент 18" cx="471.26" cy="220.62" r="15.61" gradientTransform="translate(118.8 -162.17) rotate(22.28)" xlink:href="#_Безымянный_градиент_18"/>
  </defs>
  <g class="cls-22" style="isolation: isolate; transform-origin: 404.702px 204.387px;" transform="matrix(-1, 0, 0, 1, -87.911955051479, 123.06472565523)">
    <g id="Layer_2" data-name="Layer 2">
      <g id="OBJECTS">
        <g class="cls-39" style="clip-path: url('#clippath');">
          <path class="cls-36" d="m445.24,17.85c-5.95,21.64,1.66,45.87-7.03,66.55-8.26,19.66-28.94,30.77-48.69,38.82-19.74,8.05-41.09,15.3-54.8,31.64-17.58,20.94-16.9,54.91,1.5,75.12,11.95,13.13,30.13,20.91,37.86,36.9,6.69,13.83,3.82,30.56,9.21,44.95,9.03,24.15,39.11,34.46,64.59,30.48,25.48-3.98,47.83-18.49,70.47-30.84s48.18-23.05,73.55-18.43c23.59,4.3,44.62,21.52,68.55,19.99,15.52-1,29.72-10.13,39.6-22.15,9.88-12.02,15.91-26.73,20.53-41.58,24.67-79.26,10.93-169.54-36.21-237.87-9.33-13.53-20.32-26.58-34.98-34.01-14.85-7.53-32.08-8.61-48.73-8.32-17.48.31-34.94,1.98-52.16,4.98-14.59,2.54-27.14,7.06-41.75,4.77-26.3-4.13-54.34,12.93-61.51,39Z" style="fill: rgb(237, 244, 252); pointer-events: none;"/>
          <path class="cls-36" d="m253.53,364.93c10.68,8.28,18.25,21.32,16.3,34.06-1.8,11.74-11.3,21.16-22.34,26.44-17.98,8.59-40.62,9.8-60.48,12.04-22.04,2.49-45.36,3.93-67.36-1.3-21.28-5.06-34.28-21.01-39.92-40.65-8.25-28.72-.98-91.68,43.91-83.59,21.5,3.88,38.54,20.78,58.76,28.19,23.49,8.61,50.75,9.02,71.12,24.8Z" style="fill: rgb(237, 244, 252);"/>
          <path class="cls-17" d="m561.37,98.73c-34.58.76-42.45,1.92-65.64,27.49-25.07,20.34-71.48,9.58-91.98,36.68-6.87,9.52-7.39,21.46-13.02,31.58-20.74,30.06-72,49.59-23.08,85.3,24.6,14.66,59.85,12.26,82.59,30.39,10.62,8.55,16.67,20.69,26.08,30.29,22.33,22.77,60.46-21.9,94.47-17.7,50.67,6.26,56.6,114.46,109.04,91.83,9.92-4.28-3.94-134.72-.78-144.16,22.47-67.43,26.88-141.06-.9-206.78-12.96-30.63-28.57-12.31-43.64,5.11-19.86,16.89-46.09,28.06-73.15,29.97Z" style="fill: rgb(217, 226, 239); opacity: 0.6;"/>
        </g>
        <g>
          <g>
            <g>
              <path class="cls-25" d="m366.42,204.8c9.98,26.74-1.69,55.8-1.69,55.8,0,0-27.86-14.3-37.84-41.04-9.98-26.74,1.69-55.8,1.69-55.8,0,0,27.86,14.3,37.84,41.04Z" style="fill: url('#_Безымянный_градиент_62');"/>
              <path class="cls-40" d="m363.57,205.66c.08-.26-.06-.54-.32-.62s-.54.06-.62.32l-8.41,26.11-6.82-18.05,7.33-26.3c.07-.26-.08-.53-.34-.6-.26-.07-.53.08-.6.34l-6.97,25.01-7.83-20.72,3.33-11.89c.07-.26-.08-.53-.34-.61-.26-.07-.53.08-.61.34l-2.97,10.61-8.54-22.59c-.1-.25-.37-.4-.63-.29-.25.1-.38.38-.29.63l8.44,22.35-8.36-6.53c-.22-.17-.52-.13-.69.09-.17.21-.13.52.09.69l9.63,7.52,7.84,20.73-20.06-14.47c-.22-.16-.53-.11-.69.11-.16.22-.11.53.11.69l21.26,15.34,6.77,17.92-24.45-15c-.23-.14-.53-.07-.68.16-.14.23-.07.53.16.68l25.53,15.66,4.79,12.68-12.53-7.37c-.23-.14-.54-.06-.67.17-.14.23-.06.54.17.67l13.59,7.99,3.84,10.15c.09.25.37.38.62.29,0,0,.01,0,.02,0,.25-.1.38-.38.29-.63l-3.82-10.12,7.61-15.42c.12-.24.02-.54-.22-.66s-.54-.02-.66.22l-7.2,14.59-4.88-12.92,8.79-27.28Z" style="fill: rgb(192, 221, 220); mix-blend-mode: multiply;"/>
            </g>
            <g>
              <path class="cls-28" d="m329.98,220.57c24.45,14.73,33.38,44.74,33.38,44.74,0,0-30.71,6.13-55.16-8.6-24.45-14.73-33.38-44.74-33.38-44.74,0,0,30.71-6.13,55.16,8.6Z" style="fill: url('#_Безымянный_градиент_62-2');"/>
              <path class="cls-40" d="m328.28,223.02c-.09-.25-.38-.38-.63-.29-.25.1-.38.38-.29.63l9.65,25.68-16.57-9.89-10.62-25.15c-.1-.25-.39-.37-.64-.26-.25.11-.37.39-.26.64l10.1,23.92-19.02-11.35-4.79-11.38c-.1-.25-.39-.37-.64-.26-.25.11-.37.39-.26.64l4.27,10.15-20.73-12.38c-.23-.14-.54-.08-.67.17-.14.23-.06.53.17.67l20.51,12.25-10.6.09c-.27,0-.49.23-.49.5,0,.27.23.49.5.49l12.22-.1,19.03,11.36-24.71,1.15c-.27.01-.48.24-.47.51.01.27.24.48.51.47l26.19-1.21,16.44,9.82-28.48,3.47c-.27.03-.46.28-.43.55.03.27.28.46.55.43l29.73-3.62,11.64,6.95-14.4,2.03c-.27.04-.46.29-.42.56.04.27.29.46.56.42l15.61-2.2,9.32,5.56c.23.14.52.07.67-.16,0,0,0,0,0-.01.14-.23.06-.53-.17-.67l-9.29-5.54-3.63-16.8c-.06-.27-.32-.43-.58-.38s-.43.32-.38.58l3.44,15.91-11.86-7.08-10.08-26.83Z" style="fill: rgb(192, 221, 220); mix-blend-mode: multiply;"/>
            </g>
            <g>
              <path class="cls-35" d="m529.87,204.8c-9.98,26.74,1.69,55.8,1.69,55.8,0,0,27.86-14.3,37.84-41.04,9.98-26.74-1.69-55.8-1.69-55.8,0,0-27.86,14.3-37.84,41.04Z" style="fill: url('#_Безымянный_градиент_62-3');"/>
              <path class="cls-40" d="m532.73,205.66c-.08-.26.06-.54.32-.62s.54.06.62.32l8.41,26.11,6.82-18.05-7.33-26.3c-.07-.26.08-.53.34-.6.26-.07.53.08.6.34l6.97,25.01,7.83-20.72-3.33-11.89c-.07-.26.08-.53.34-.61.26-.07.53.08.61.34l2.97,10.61,8.54-22.59c.1-.25.37-.4.63-.29.25.1.38.38.29.63l-8.44,22.35,8.36-6.53c.22-.17.52-.13.69.09.17.21.13.52-.09.69l-9.63,7.52-7.84,20.73,20.06-14.47c.22-.16.53-.11.69.11.16.22.11.53-.11.69l-21.26,15.34-6.77,17.92,24.45-15c.23-.14.53-.07.68.16.14.23.07.53-.16.68l-25.53,15.66-4.79,12.68,12.53-7.37c.23-.14.54-.06.67.17.14.23.06.54-.17.67l-13.59,7.99-3.84,10.15c-.09.25-.37.38-.62.29,0,0-.01,0-.02,0-.25-.1-.38-.38-.29-.63l3.82-10.12-7.61-15.42c-.12-.24-.02-.54.22-.66s.54-.02.66.22l7.2,14.59,4.88-12.92-8.79-27.28Z" style="fill: rgb(192, 221, 220); mix-blend-mode: multiply;"/>
            </g>
            <g>
              <path class="cls-24" d="m566.31,220.57c-24.45,14.73-33.38,44.74-33.38,44.74,0,0,30.71,6.13,55.16-8.6,24.45-14.73,33.38-44.74,33.38-44.74,0,0-30.71-6.13-55.16,8.6Z" style="fill: url('#_Безымянный_градиент_62-4');"/>
              <path class="cls-40" d="m568.02,223.02c.09-.25.38-.38.63-.29.25.1.38.38.29.63l-9.65,25.68,16.57-9.89,10.62-25.15c.1-.25.39-.37.64-.26.25.11.37.39.26.64l-10.1,23.92,19.02-11.35,4.79-11.38c.1-.25.39-.37.64-.26.25.11.37.39.26.64l-4.27,10.15,20.73-12.38c.23-.14.54-.08.67.17.14.23.06.53-.17.67l-20.51,12.25,10.6.09c.27,0,.49.23.49.5,0,.27-.23.49-.5.49l-12.22-.1-19.03,11.36,24.71,1.15c.27.01.48.24.47.51-.01.27-.24.48-.51.47l-26.19-1.21-16.44,9.82,28.48,3.47c.27.03.46.28.43.55-.03.27-.28.46-.55.43l-29.73-3.62-11.64,6.95,14.4,2.03c.27.04.46.29.42.56-.04.27-.29.46-.56.42l-15.61-2.2-9.32,5.56c-.23.14-.52.07-.67-.16,0,0,0,0,0-.01-.14-.23-.06-.53.17-.67l9.29-5.54,3.63-16.8c.06-.27.32-.43.58-.38s.43.32.38.58l-3.44,15.91,11.86-7.08,10.08-26.83Z" style="fill: rgb(192, 221, 220); mix-blend-mode: multiply;"/>
            </g>
          </g>
          <path class="cls-32" d="m509.53,267.7c0,1.01-40.7,1.84-90.91,1.84s-90.91-.82-90.91-1.84,40.7-1.84,90.91-1.84,90.91.82,90.91,1.84Z" style="fill: rgb(184, 196, 209);"/>
          <g>
            <rect class="cls-34" x="471.26" y="121.85" width="75.42" height="145.63" rx="4.16" ry="4.16" style="fill: url('#_Безымянный_градиент_30');"/>
            <g>
              <path class="cls-18" d="m440.32,159.95h137.31c.64,0,1.16.52,1.16,1.16v67.11c0,.64-.52,1.16-1.16,1.16h-137.31c-.64,0-1.16-.52-1.16-1.16v-67.11c0-.64.52-1.16,1.16-1.16Z" transform="translate(703.63 -314.31) rotate(90)" style="fill: rgb(217, 226, 239);"/>
              <g class="cls-29" style="clip-path: url('#clippath-1');">
                <path class="cls-36" d="m541.68,160.96c-1.68-1.22-3.29-2.38-4.77-3.48-3.37-2.49-6.8-4.38-10.27-5.68l-13.91-30.87-2.98,1.34,12.73,28.27c-6.3-1.48-12.66-1-18.87,1.46l-15.97-35.78-2.98,1.34,15.96,35.75-15.24,6.87-13.82-30.69-1.22,10.54,10.08,22.38-15.24,6.87-10.08-22.38-2.98,1.34,29.63,65.78,1.49-.67c3.09-1.39,10.56-1.56,19.72-.91l2.51,5.58c-4.05,3.03-12.48,10.34-13.21,19.26l-7.63,3.44-40.11-89.05-1.98.89,40.11,89.05-11.41,5.14-40.11-89.05-1.98.89,53.45,118.19,1.98-.89-12.44-27.16,11.41-5.14,15.06,32.75,1.98-.89-15.06-32.75,6.73-3.03c.16,2.12.8,4.31,2.04,6.55,4.23,7.56,10.45,8.1,15.06,6.03.17-.08.33-.15.49-.23,3.2-1.61,5.91-4.67,7.19-8.34l13.13,26.99,4.96-2.23-25.95-55.46c6.29.63,13.05,1.56,19.54,2.68l17.99,39.27,2.98-1.34-17.07-37.23c8.69,1.62,16.63,3.56,22.01,5.52l3.04,6.75,2.98-1.34-14.61-32.43c4.82.76,9.95.87,15.38-.69.8-.23,1.54-.5,2.2-.79,2.53-1.14,3.99-2.76,4.35-4.84,1.23-6.98-10.64-16.21-26.28-27.55Zm-35.29,59.08l4.07,9.03-15.86,7.14c1.25-7.28,8.09-13.36,11.79-16.18Zm2.48,30.02c-4.84,2.45-9.59.61-12.67-4.91-1.23-2.2-1.76-4.36-1.79-6.46l16.95-7.64,4.22,9.36c-.49,4.22-3.27,7.91-6.7,9.64Zm15.35-95.68l16.19,35.93c-1.31-.34-2.6-.69-3.86-1.04-6.05-1.67-11.8-3.25-16.9-1.68l-14.69-32.6c6.4-2.52,12.85-2.72,19.26-.61Zm-22.25,1.91l14.66,32.54-15.24,6.87-14.66-32.54,15.24-6.87Zm-20.2,9.1l14.66,32.54-15.24,6.87-14.66-32.54,15.24-6.87Zm1.68,44.44l-.93-2.07,15.24-6.87,3.67,8.14c-7.66-.45-14.15-.27-17.98.79Zm24.16-.33l-4.88-10.84,15.24-6.87,9.12,20.25c-6.51-1.08-13.23-1.97-19.48-2.54Zm45.19,8.31c-5.73-1.8-13.49-3.59-21.82-5.09l-9.97-22.13c4.11-1.08,9.05.28,14.68,1.83,2.07.57,4.21,1.16,6.43,1.66l10.69,23.73Zm11.95-29.85c-.23,1.29-1.65,2.32-4.24,3.06-5.63,1.62-11.04,1.22-16.11.21l-15.78-35.03c2.12,1.05,4.24,2.36,6.35,3.92,1.49,1.1,3.1,2.27,4.79,3.5,10.34,7.49,25.96,18.82,24.99,24.34Z" style="fill: rgb(237, 244, 252);"/>
              </g>
            </g>
            <g>
              <circle class="cls-27" cx="508.97" cy="128.9" r="2.22" style="fill: url('#_Безымянный_градиент_30-2');"/>
              <circle class="cls-3" cx="508.97" cy="128.9" r="1.74" style="fill: url('#_Безымянный_градиент_59'); mix-blend-mode: screen;"/>
            </g>
            <path class="cls-21" d="m514.35,150.42c-6.34,0-11.48,5.14-11.48,11.48,0,7.68,11.48,19.93,11.48,19.93,0,0,11.48-12.12,11.48-19.93,0-6.34-5.14-11.48-11.48-11.48Zm0,18.83c-4.06,0-7.36-3.29-7.36-7.36s3.29-7.36,7.36-7.36,7.36,3.29,7.36,7.36-3.29,7.36-7.36,7.36Z" style="stroke: url('#pattern-0-0'); stroke-width: 0px; fill: rgb(30, 129, 246);"/>
          </g>
          <g>
            <rect class="cls-42" x="360.02" y="245.18" width="114.25" height="12.21" style="fill: url('#_Безымянный_градиент_30-3');"/>
            <g>
              <path class="cls-16" d="m346.46,243.23h20.39v20.72c0,2.07-1.68,3.74-3.74,3.74h-12.9c-2.07,0-3.74-1.68-3.74-3.74v-20.72h0Z" style="fill: url('#_Безымянный_градиент_30-4');"/>
              <path class="cls-15" d="m474.12,243.23h12.9c2.07,0,3.74,1.68,3.74,3.74v20.72h-20.39v-20.72c0-2.07,1.68-3.74,3.74-3.74Z" transform="translate(961.13 510.93) rotate(180)" style="fill: url('#_Безымянный_градиент_30-5');"/>
            </g>
            <path class="cls-45" d="m363.21,196.31l-12.12-.6c-2.34-.12-4.18-2.05-4.18-4.4h0c0-2.43,1.97-4.4,4.4-4.4h3.92c2.22,0,4.23,1.3,5.13,3.33l1.02,2.28h5.68l-3.85,3.79Z" style="fill: rgb(30, 129, 246);"/>
            <path class="cls-26" d="m474.01,196.31l12.12-.6c2.34-.12,4.18-2.05,4.18-4.4h0c0-2.43-1.97-4.4-4.4-4.4h-3.92c-2.22,0-4.23,1.3-5.13,3.33l-1.02,2.28h-5.68l3.85,3.79Z" style="fill: rgb(30, 129, 246);"/>
            <path class="cls-44" d="m492.89,218.47v23.6c0,1.5-.35,2.98-.99,4.34l-1.35,2.84c-1.67,3.47-5.17,5.68-9.03,5.68h-18.18c-1.24,0-2.46-.23-3.62-.68l-2.81-1.08c-2.77-1.08-5.7-1.63-8.67-1.63h-59.22c-2.98,0-5.92.55-8.69,1.63l-2.81,1.08c-1.15.45-2.38.68-3.62.68h-18.18c-3.85,0-7.36-2.2-9.02-5.68l-1.37-2.84c-.65-1.35-.98-2.84-.98-4.34v-23.6c0-2.56.98-5.04,2.75-6.9l3.72-3.9s0-.01.01-.03l.19-.19,12.22-12.85s4.21-12.07,13.2-25.23c0,0,6.02-2.69,40.91-2.81h0s2.54-.01,2.54-.01h0c34.91.13,40.93,2.82,40.93,2.82,8.99,13.15,13.2,25.23,13.2,25.23l13.21,13.9h.01l2.91,3.07c1.76,1.86,2.75,4.34,2.75,6.9Z" style="fill: rgb(30, 129, 246);"/>
            <path class="cls-31" d="m492.89,218.47v23.6c0,1.5-.35,2.98-.99,4.34l-1.35,2.84c-1.67,3.47-5.17,5.68-9.03,5.68h-18.18c-1.24,0-2.46-.23-3.62-.68l-2.81-1.08c-2.77-1.08-5.7-1.63-8.67-1.63h-59.22c-2.98,0-5.92.55-8.69,1.63l-2.81,1.08c-1.15.45-2.38.68-3.62.68h-18.18c-3.85,0-7.36-2.2-9.02-5.68l-1.37-2.84c-.65-1.35-.98-2.84-.98-4.34v-23.6c0-2.56.98-5.04,2.75-6.9l3.72-3.9c-1.53,2.68,23.57,12.17,35.11,12.97,11.87.81,53.85.43,65.39,0,11.54-.45,32.98-7.61,35.9-12.13h.01l2.91,3.07c1.76,1.86,2.75,4.34,2.75,6.9Z" style="fill: rgb(30, 129, 246);"/>
            <path class="cls-1" d="m470.56,194.38c-3.85-.22-10.14-.42-17.06-.61-2.49-.06-5.09-.13-7.66-.19-8.41-.19-16.78-.32-22.17-.39-2.3-.03-4.06-.04-5.06-.04-5.99,0-40.22.56-51.95,1.22,1.79-6.3,7.89-16.44,11.14-22.09,2.26-.75,5.39-1.3,9.09-1.69,3.56-.39,7.64-.63,11.96-.78,3.36-.12,6.84-.19,10.36-.22,3.15-.04,6.32-.04,9.41-.04,1.58,0,3.2,0,4.83.01,1.15,0,2.32,0,3.47.01,9.61.07,19.19.36,26.09,1.33,2.55.36,4.74.81,6.43,1.37,1.11,1.93,2.56,4.39,4.08,7.06,1.21,2.16,2.43,4.42,3.56,6.64.86,1.73,1.66,3.41,2.29,4.98.5,1.21.92,2.36,1.21,3.4Z" style="fill: url('#_Безымянный_градиент_30-6');"/>
            <path class="cls-19" d="m451.31,220.62s-20.07,1.17-32.7,1.17c-14.34,0-32.7-1.17-32.7-1.17,0,0-10.85,4.09-10.85,8.74,0,3.58,6.28,13.24,9.18,17.51.89,1.31,2.36,2.08,3.93,2.08h60.87c1.58,0,3.05-.78,3.93-2.08,2.9-4.27,9.18-13.93,9.18-17.51,0-4.65-10.85-8.74-10.85-8.74Z" style="fill: url('#_Безымянный_градиент_30-7');"/>
            <g>
              <g>
                <path class="cls-30" d="m359.59,245.63c0,2.5-2.03,4.53-4.53,4.53s-4.53-2.03-4.53-4.53,2.03-4.53,4.53-4.53,4.53,2.03,4.53,4.53Z" style="fill: url('#_Безымянный_градиент_30-8');"/>
                <path class="cls-37" d="m358.01,245.63c0,1.63-1.32,2.95-2.95,2.95s-2.95-1.32-2.95-2.95,1.32-2.95,2.95-2.95,2.95,1.32,2.95,2.95Z" style="fill: url('#_Безымянный_градиент_41');"/>
              </g>
              <g>
                <path class="cls-23" d="m477.63,245.63c0,2.5,2.03,4.53,4.53,4.53s4.53-2.03,4.53-4.53-2.03-4.53-4.53-4.53-4.53,2.03-4.53,4.53Z" style="fill: url('#_Безымянный_градиент_30-9');"/>
                <path class="cls-43" d="m479.22,245.63c0,1.63,1.32,2.95,2.95,2.95s2.95-1.32,2.95-2.95-1.32-2.95-2.95-2.95-2.95,1.32-2.95,2.95Z" style="fill: url('#_Безымянный_градиент_41-2');"/>
              </g>
            </g>
            <g>
              <g>
                <path class="cls-20" d="m352.95,210.38c-2.19-.27-4.7,1.34-5.88,4.45-.67,1.76-.69,4.22-.53,6.54,5.64,5.64,18.81,5.78,22.27,5.43,3.45-.35,11.27-4.72,12.12-6.62.85-1.9-24.59-9.37-27.98-9.79Z" style="fill: url('#_Безымянный_градиент_41-3');"/>
                <circle class="cls-14" cx="355.77" cy="218.16" r="4.47" style="fill: url('#_Безымянный_градиент_42'); mix-blend-mode: screen;"/>
                <circle class="cls-6" cx="365.96" cy="220.62" r="3.73" style="fill: url('#_Безымянный_градиент_42-2'); mix-blend-mode: screen;"/>
              </g>
              <g>
                <path class="cls-46" d="m484.27,210.38c2.19-.27,4.7,1.34,5.88,4.45.67,1.76.69,4.22.53,6.54-5.64,5.64-18.81,5.78-22.27,5.43-3.45-.35-11.27-4.72-12.12-6.62-.85-1.9,24.59-9.37,27.98-9.79Z" style="fill: url('#_Безымянный_градиент_41-4');"/>
                <circle class="cls-11" cx="481.46" cy="218.16" r="4.47" style="fill: url('#_Безымянный_градиент_42-3'); mix-blend-mode: screen;"/>
                <circle class="cls-4" cx="471.26" cy="220.62" r="3.73" style="fill: url('#_Безымянный_градиент_42-4'); mix-blend-mode: screen;"/>
              </g>
            </g>
            <rect class="cls-33" x="401.07" y="236.75" width="35.7" height="8.88" rx=".51" ry=".51" style="fill: url('#_Безымянный_градиент_41-5');"/>
            <path class="cls-38" d="m421.86,230.34h-6.5c-1.42,0-2.58-1.15-2.58-2.58h0c0-1.42,1.15-2.58,2.58-2.58h6.5c1.42,0,2.58,1.15,2.58,2.58h0c0,1.42-1.15,2.58-2.58,2.58Z" style="fill: url('#_Безымянный_градиент_41-6');"/>
            <path class="cls-2" d="m467.53,191.05c-5.09.7-13.88,1.51-23.75.59-13.7-1.3-27.84-12.69-32.62-20.62,2.96-.04,5.93-.04,8.82-.04,1.49,0,3,0,4.52.01,1.08,0,2.17,0,3.25.01,9.01.07,17.98.34,24.45,1.24,2.39.34,4.44.76,6.02,1.28,1.04,1.81,2.4,4.12,3.82,6.62,1.13,2.03,2.28,4.14,3.33,6.22.81,1.62,1.55,3.2,2.15,4.67Z" style="fill: url('#_Безымянный_градиент_30-10'); mix-blend-mode: screen;"/>
            <path class="cls-8" d="m362.23,197.48c-5.21,5.21-9.64,8.44-7.89,10.18s26.64,11.8,39.74,11.8,48.34,2.28,58.35-.83c10.01-3.12,29.39-8.15,31.01-9.76,1.61-1.61-9.16-11.4-9.16-11.4h-112.04Z" style="fill: url('#_Безымянный_градиент_59-2'); mix-blend-mode: screen;"/>
            <path class="cls-10" d="m484.13,194.66h2.13c1.93,0,3.5-1.57,3.5-3.5h0c0-1.93-1.57-3.5-3.5-3.5h-2.13c-1.93,0-3.5,1.57-3.5,3.5h0c0,1.93,1.57,3.5,3.5,3.5Z" style="fill: url('#_Безымянный_градиент_59-3'); mix-blend-mode: screen;"/>
            <path class="cls-13" d="m351.05,194.66h2.13c1.93,0,3.5-1.57,3.5-3.5h0c0-1.93-1.57-3.5-3.5-3.5h-2.13c-1.93,0-3.5,1.57-3.5,3.5h0c0,1.93,1.57,3.5,3.5,3.5Z" style="fill: url('#_Безымянный_градиент_59-4'); mix-blend-mode: screen;"/>
          </g>
          <g>
            <path class="cls-32" d="m411.63,152.72c-.18-.09-.35-.21-.5-.36-.74-.74-.74-1.95,0-2.69,2.22-2.21,5.16-3.41,8.29-3.39,3.12.02,6.05,1.26,8.25,3.5.74.75.72,1.95-.03,2.69-.75.73-1.95.73-2.69-.03-1.48-1.51-3.45-2.34-5.56-2.36-2.1-.01-4.09.8-5.58,2.29-.59.59-1.48.71-2.19.35Z" style="fill: rgb(184, 196, 209);"/>
            <path class="cls-32" d="m405.77,146.85c-.18-.09-.35-.21-.5-.36-.74-.74-.74-1.95,0-2.69,3.8-3.78,8.84-5.85,14.19-5.81,5.36.03,10.37,2.16,14.12,5.99.73.75.72,1.95-.03,2.69-.75.73-1.95.72-2.69-.03-3.03-3.1-7.09-4.82-11.43-4.85-4.34-.03-8.41,1.64-11.49,4.71-.59.59-1.48.71-2.19.35Z" style="fill: rgb(184, 196, 209);"/>
            <path class="cls-32" d="m400.16,141.22c-.18-.09-.35-.21-.5-.36-.74-.74-.74-1.95,0-2.69,5.31-5.29,12.36-8.18,19.86-8.14,7.5.05,14.51,3.03,19.75,8.38.73.75.72,1.95-.03,2.69-.75.73-1.95.72-2.69-.03-4.53-4.63-10.59-7.2-17.06-7.24-6.48-.04-12.57,2.45-17.15,7.03-.59.59-1.48.71-2.19.35Z" style="fill: rgb(184, 196, 209);"/>
          </g>
          <g>
            <g>
              <circle class="cls-9" cx="365.96" cy="220.62" r="27.55" style="fill: url('#_Безымянный_градиент_18'); mix-blend-mode: screen;"/>
              <circle class="cls-5" cx="365.96" cy="220.62" r="15.61" transform="translate(66.67 525.63) rotate(-76.63)" style="fill: url('#_Безымянный_градиент_18-2'); mix-blend-mode: screen;"/>
            </g>
            <g>
              <circle class="cls-12" cx="471.26" cy="220.62" r="27.55" style="fill: url('#_Безымянный_градиент_18-3'); mix-blend-mode: screen;"/>
              <circle class="cls-7" cx="471.26" cy="220.62" r="15.61" transform="translate(-48.46 195.1) rotate(-22.28)" style="fill: url('#_Безымянный_градиент_18-4'); mix-blend-mode: screen;"/>
            </g>
          </g>
        </g>
      </g>
    </g>
  </g>
</svg>
