<?xml version="1.0" encoding="utf-8"?>
<svg viewBox="12.546 53.485 585.18 373.221" xmlns="http://www.w3.org/2000/svg">
  <defs>
    <clipPath id="clippath">
      <rect class="cls-41" width="661.59" height="372.13" rx="10.98" ry="10.98" style="fill: none;"/>
    </clipPath>
  </defs>
  <g class="cls-22" style="isolation: isolate; transform-origin: 404.702px 204.387px;" transform="matrix(-1, 0, 0, 1, -134.279449800046, 52.876413801748)">
    <g id="Layer_2" data-name="Layer 2">
      <g id="OBJECTS">
        <g class="cls-39" style="clip-path: url('#clippath');">
          <path class="cls-36" d="m445.24,17.85c-5.95,21.64,1.66,45.87-7.03,66.55-8.26,19.66-28.94,30.77-48.69,38.82-19.74,8.05-41.09,15.3-54.8,31.64-17.58,20.94-16.9,54.91,1.5,75.12,11.95,13.13,30.13,20.91,37.86,36.9,6.69,13.83,3.82,30.56,9.21,44.95,9.03,24.15,39.11,34.46,64.59,30.48,25.48-3.98,47.83-18.49,70.47-30.84s48.18-23.05,73.55-18.43c23.59,4.3,44.62,21.52,68.55,19.99,15.52-1,29.72-10.13,39.6-22.15,9.88-12.02,15.91-26.73,20.53-41.58,24.67-79.26,10.93-169.54-36.21-237.87-9.33-13.53-20.32-26.58-34.98-34.01-14.85-7.53-32.08-8.61-48.73-8.32-17.48.31-34.94,1.98-52.16,4.98-14.59,2.54-27.14,7.06-41.75,4.77-26.3-4.13-54.34,12.93-61.51,39Z" style="fill: rgb(237, 244, 252); pointer-events: none;"/>
          <path class="cls-36" d="m253.53,364.93c10.68,8.28,18.25,21.32,16.3,34.06-1.8,11.74-11.3,21.16-22.34,26.44-17.98,8.59-40.62,9.8-60.48,12.04-22.04,2.49-45.36,3.93-67.36-1.3-21.28-5.06-34.28-21.01-39.92-40.65-8.25-28.72-.98-91.68,43.91-83.59,21.5,3.88,38.54,20.78,58.76,28.19,23.49,8.61,50.75,9.02,71.12,24.8Z" style="fill: rgb(237, 244, 252);"/>
          <path class="cls-17" d="m561.37,98.73c-34.58.76-42.45,1.92-65.64,27.49-25.07,20.34-71.48,9.58-91.98,36.68-6.87,9.52-7.39,21.46-13.02,31.58-20.74,30.06-72,49.59-23.08,85.3,24.6,14.66,59.85,12.26,82.59,30.39,10.62,8.55,16.67,20.69,26.08,30.29,22.33,22.77,60.46-21.9,94.47-17.7,50.67,6.26,56.6,114.46,109.04,91.83,9.92-4.28-3.94-134.72-.78-144.16,22.47-67.43,26.88-141.06-.9-206.78-12.96-30.63-28.57-12.31-43.64,5.11-19.86,16.89-46.09,28.06-73.15,29.97Z" style="fill: rgb(217, 226, 239); opacity: 0.6;"/>
        </g>
      </g>
    </g>
  </g>
</svg>